<?xml version="1.0" encoding="UTF-8"?>
<svg xmlns="http://www.w3.org/2000/svg" viewBox="0 0 1064 2147">
  <defs>
    <style>
      .cls-1 {
        fill: #fbf3ff;
      }

      .cls-2 {
        fill: #fff;
      }

      .cls-3 {
        fill: none;
        stroke: #000;
        stroke-miterlimit: 10;
      }

      .cls-4 {
        fill: #b75742;
      }

      .cls-5 {
        fill: #ffaf95;
      }

      .cls-6 {
        isolation: isolate;
      }

      .cls-7 {
        font-family: MyriadPro-Regular, 'Myriad Pro';
      }

      .cls-7, .cls-8 {
        font-size: 12px;
      }

      .cls-8 {
        font-family: AdobeArabic-Regular, 'Adobe Arabic';
      }

      .cls-9 {
        fill: #50bfa5;
      }

      .cls-10, .cls-11 {
        fill: #ff7685;
      }

      .cls-12 {
        fill: #e89680;
      }

      .cls-13 {
        fill: #d6d6ed;
      }

      .cls-14 {
        fill: #5d846d;
      }

      .cls-15 {
        fill: #e67e22;
      }

      .cls-16 {
        fill: #333343;
      }

      .cls-17 {
        fill: #3e3d51;
      }

      .cls-18, .cls-19 {
        fill: #ece1ef;
      }

      .cls-19 {
        opacity: .1;
      }

      .cls-19, .cls-11 {
        mix-blend-mode: multiply;
      }

      .cls-20 {
        fill: #515a9b;
      }

      .cls-21 {
        fill: #1e824c;
      }

      .cls-22 {
        fill: #b1b1de;
      }

      .cls-23 {
        fill: #e26072;
      }

      .cls-24 {
        fill: #3c8f7c;
      }

      .cls-25 {
        fill: #8282a8;
      }

      .cls-26 {
        fill: #ececec;
      }

      .cls-11 {
        opacity: .45;
      }
    </style>
  </defs>
  <g class="cls-6">
    <g id="Layer_2" data-name="Layer 2">
      <g id="Layer_1-2" data-name="Layer 1">
        <g>
          <text class="cls-7" transform="translate(581.07 1509.38)"><tspan x="0" y="0">Lorem ipsum</tspan></text>
          <text class="cls-7" transform="translate(404.46 1490.94)"><tspan x="0" y="0">Lorem ipsum</tspan></text>
          <text class="cls-7" transform="translate(505.78 1488.72)"><tspan x="0" y="0">Lorem ipsum dolor sit amet, consectetuer adipiscing</tspan></text>
          <text class="cls-7" transform="translate(604.87 1496.83)"><tspan x="0" y="0">Lorem ipsum</tspan></text>
          <text class="cls-7" transform="translate(759.59 1478.55)"><tspan x="0" y="0">orem ipsum</tspan></text>
          <text class="cls-7" transform="translate(404.46 1477.17)"><tspan x="0" y="0">Lorem ipsum</tspan></text>
          <g>
            <g>
              <path class="cls-16" d="M1047.37,339.5h-2.02V127.36c0-70.34-57.02-127.36-127.36-127.36H146.01C75.67,0,18.65,57.02,18.65,127.36v212.14h-2.02c-9.18,0-16.63,7.44-16.63,16.63v146.75c0,9.18,7.44,16.63,16.63,16.63h2.02v35h-2.02c-9.18,0-16.63,7.44-16.63,16.63v146.75c0,9.18,7.44,16.63,16.63,16.63h2.02V2019.64c0,70.34,57.02,127.36,127.36,127.36H917.99c70.34,0,127.36-57.02,127.36-127.36V609.5h2.02c9.18,0,16.63-7.44,16.63-16.63v-236.75c0-9.18-7.44-16.63-16.63-16.63Z"/>
              <path class="cls-2" d="M159.15,31.5H904.84c57.09,0,103.44,46.35,103.44,103.44V2012.06c0,57.09-46.35,103.44-103.44,103.44H159.15c-57.09,0-103.44-46.35-103.44-103.44V134.94c0-57.09,46.35-103.44,103.44-103.44Z"/>
            </g>
            <g>
              <g>
                <g>
                  <path class="cls-17" d="M221.33,166.81h-61c-1.38,0-2.5-1.12-2.5-2.5s1.12-2.5,2.5-2.5h61c1.38,0,2.5,1.12,2.5,2.5s-1.12,2.5-2.5,2.5Z"/>
                  <path class="cls-17" d="M221.33,189.31h-61c-1.38,0-2.5-1.12-2.5-2.5s1.12-2.5,2.5-2.5h61c1.38,0,2.5,1.12,2.5,2.5s-1.12,2.5-2.5,2.5Z"/>
                  <path class="cls-17" d="M221.33,211.81h-61c-1.38,0-2.5-1.12-2.5-2.5s1.12-2.5,2.5-2.5h61c1.38,0,2.5,1.12,2.5,2.5s-1.12,2.5-2.5,2.5Z"/>
                </g>
                <g>
                  <g>
                    <path class="cls-17" d="M759.58,198.69c-2.1-.7-3.75-1.61-4.95-2.72l1.59-3.34c1.14,1.03,2.61,1.86,4.39,2.51,1.79,.64,3.62,.96,5.51,.96,2.49,0,4.34-.42,5.57-1.26,1.23-.84,1.84-1.96,1.84-3.37,0-1.03-.34-1.87-1.01-2.51-.67-.64-1.5-1.14-2.49-1.48-.99-.34-2.38-.73-4.18-1.16-2.26-.54-4.08-1.09-5.47-1.63-1.39-.54-2.57-1.38-3.56-2.51-.99-1.13-1.48-2.65-1.48-4.57,0-1.6,.42-3.04,1.26-4.33,.84-1.29,2.12-2.31,3.84-3.09,1.71-.77,3.84-1.16,6.39-1.16,1.77,0,3.52,.23,5.23,.69,1.71,.46,3.19,1.11,4.42,1.97l-1.41,3.43c-1.26-.8-2.6-1.41-4.03-1.82-1.43-.41-2.83-.62-4.2-.62-2.43,0-4.25,.44-5.47,1.33-1.22,.89-1.82,2.03-1.82,3.43,0,1.03,.34,1.87,1.03,2.51,.69,.64,1.54,1.14,2.55,1.5,1.01,.36,2.39,.74,4.14,1.14,2.26,.54,4.07,1.09,5.44,1.63,1.37,.54,2.55,1.37,3.54,2.49,.99,1.11,1.48,2.62,1.48,4.5,0,1.57-.43,3.01-1.29,4.31-.86,1.3-2.16,2.33-3.9,3.09-1.74,.76-3.89,1.14-6.43,1.14-2.26,0-4.44-.35-6.54-1.05Z"/>
                    <path class="cls-17" d="M792.23,188.81l-4.72,4.37v6.22h-4.12v-31.81h4.12v20.41l12.39-11.32h4.97l-9.56,9.39,10.5,13.33h-5.06l-8.53-10.59Z"/>
                    <path class="cls-17" d="M809.57,171.53c-.53-.51-.79-1.14-.79-1.89s.26-1.38,.79-1.91c.53-.53,1.19-.79,1.99-.79s1.46,.25,1.99,.75c.53,.5,.79,1.12,.79,1.87s-.26,1.42-.79,1.95c-.53,.53-1.19,.79-1.99,.79s-1.46-.26-1.99-.77Zm-.06,5.14h4.12v22.72h-4.12v-22.72Z"/>
                    <path class="cls-17" d="M839.43,177.92c1.74,.97,3.11,2.33,4.09,4.07,.99,1.74,1.48,3.76,1.48,6.05s-.49,4.31-1.48,6.07c-.99,1.76-2.35,3.12-4.09,4.09-1.74,.97-3.72,1.46-5.92,1.46-1.63,0-3.12-.31-4.48-.94-1.36-.63-2.51-1.54-3.45-2.74v11.75h-4.12v-31.04h3.94v3.6c.91-1.26,2.07-2.21,3.47-2.85,1.4-.64,2.94-.96,4.63-.96,2.2,0,4.17,.49,5.92,1.46Zm-2.34,17.13c1.16-.67,2.07-1.61,2.74-2.83,.67-1.21,1.01-2.61,1.01-4.18s-.34-2.96-1.01-4.18c-.67-1.21-1.59-2.15-2.74-2.81-1.16-.66-2.46-.99-3.92-.99s-2.72,.34-3.88,1.01c-1.16,.67-2.07,1.61-2.74,2.81-.67,1.2-1.01,2.59-1.01,4.16s.33,2.97,.99,4.18c.66,1.22,1.57,2.16,2.74,2.83,1.17,.67,2.47,1.01,3.9,1.01s2.77-.34,3.92-1.01Z"/>
                  </g>
                  <path class="cls-17" d="M858.5,234.48h-117.33c-26.29,0-47.67-21.39-47.67-47.67s21.39-47.67,47.67-47.67h117.33c26.29,0,47.67,21.39,47.67,47.67s-21.39,47.67-47.67,47.67Zm-117.33-90.34c-23.53,0-42.67,19.14-42.67,42.67s19.14,42.67,42.67,42.67h117.33c23.53,0,42.67-19.14,42.67-42.67s-19.14-42.67-42.67-42.67h-117.33Z"/>
                </g>
              </g>
              <g>
                <path class="cls-25" d="M470.81,1927c-8.42,0-15.28,6.85-15.28,15.28s6.85,15.28,15.28,15.28,15.28-6.85,15.28-15.28-6.85-15.28-15.28-15.28Z"/>
                <path class="cls-25" d="M532,1957.77c-8.42,0-15.28-6.85-15.28-15.28s6.85-15.28,15.28-15.28,15.28,6.85,15.28,15.28-6.85,15.28-15.28,15.28Zm0-25.55c-5.67,0-10.28,4.61-10.28,10.28s4.61,10.28,10.28,10.28,10.28-4.61,10.28-10.28-4.61-10.28-10.28-10.28Z"/>
                <path class="cls-25" d="M593.19,1958c-8.42,0-15.28-6.85-15.28-15.28s6.85-15.28,15.28-15.28,15.28,6.85,15.28,15.28-6.85,15.28-15.28,15.28Zm0-25.55c-5.67,0-10.28,4.61-10.28,10.28s4.61,10.28,10.28,10.28,10.28-4.61,10.28-10.28-4.61-10.28-10.28-10.28Z"/>
              </g>
              <g>
                <g>
                  <path class="cls-17" d="M212.65,1455.15h17.89v81.21h50.38v15.14h-68.28v-96.36Z"/>
                  <path class="cls-17" d="M305.7,1547.65c-5.97-3.21-10.62-7.68-13.97-13.42-3.35-5.73-5.02-12.23-5.02-19.48s1.67-13.72,5.02-19.41c3.35-5.69,8.01-10.14,13.97-13.35,5.96-3.21,12.66-4.82,20.1-4.82s14.27,1.61,20.24,4.82c5.96,3.21,10.62,7.66,13.97,13.35,3.35,5.69,5.02,12.16,5.02,19.41s-1.68,13.74-5.02,19.48c-3.35,5.74-8.01,10.21-13.97,13.42-5.97,3.21-12.71,4.82-20.24,4.82s-14.13-1.6-20.1-4.82Zm35.79-16.24c4.13-4.22,6.19-9.77,6.19-16.66s-2.06-12.43-6.19-16.66c-4.13-4.22-9.36-6.33-15.69-6.33s-11.54,2.11-15.62,6.33c-4.08,4.22-6.13,9.77-6.13,16.66s2.04,12.44,6.13,16.66c4.08,4.22,9.29,6.33,15.62,6.33s11.56-2.11,15.69-6.33Z"/>
                  <path class="cls-17" d="M424.08,1477.17v16.38c-1.47-.27-2.8-.41-3.99-.41-6.7,0-11.93,1.95-15.69,5.85-3.76,3.9-5.64,9.52-5.64,16.86v35.65h-17.21v-73.51h16.38v10.74c4.96-7.71,13.67-11.56,26.15-11.56Z"/>
                  <path class="cls-17" d="M506.81,1520.26h-57.68c1.01,5.42,3.65,9.7,7.92,12.87,4.27,3.17,9.57,4.75,15.9,4.75,8.07,0,14.73-2.66,19.96-7.98l9.22,10.6c-3.3,3.95-7.48,6.93-12.53,8.95-5.05,2.02-10.74,3.03-17.07,3.03-8.08,0-15.19-1.6-21.34-4.82-6.15-3.21-10.9-7.68-14.25-13.42-3.35-5.73-5.02-12.23-5.02-19.48s1.63-13.6,4.89-19.34c3.26-5.73,7.78-10.21,13.56-13.42,5.78-3.21,12.3-4.82,19.55-4.82s13.56,1.58,19.2,4.75c5.64,3.17,10.05,7.62,13.21,13.35,3.17,5.74,4.75,12.37,4.75,19.89,0,1.19-.09,2.89-.28,5.09Zm-50.86-24.43c-3.81,3.26-6.13,7.59-6.95,13.01h41.71c-.74-5.32-2.98-9.64-6.75-12.94-3.76-3.3-8.44-4.96-14.04-4.96s-10.17,1.63-13.97,4.89Z"/>
                  <path class="cls-17" d="M638.41,1485.22c5.41,5.37,8.12,13.42,8.12,24.16v42.12h-17.21v-39.92c0-6.42-1.42-11.26-4.27-14.52-2.85-3.26-6.93-4.89-12.25-4.89-5.78,0-10.42,1.91-13.9,5.71-3.49,3.81-5.23,9.25-5.23,16.31v37.3h-17.21v-39.92c0-6.42-1.42-11.26-4.27-14.52-2.85-3.26-6.93-4.89-12.25-4.89-5.87,0-10.53,1.88-13.97,5.64-3.44,3.76-5.16,9.22-5.16,16.38v37.3h-17.21v-73.51h16.38v9.36c2.75-3.3,6.19-5.83,10.32-7.57,4.13-1.74,8.72-2.62,13.76-2.62,5.51,0,10.39,1.03,14.66,3.1,4.27,2.07,7.64,5.12,10.12,9.15,3.03-3.85,6.93-6.86,11.7-9.02,4.77-2.16,10.05-3.23,15.83-3.23,9.27,0,16.61,2.68,22.03,8.05Z"/>
                  <path class="cls-17" d="M711.77,1550.13c-5.69-1.56-10.23-3.53-13.63-5.92l6.61-13.08c3.3,2.2,7.27,3.97,11.91,5.3,4.63,1.33,9.2,2,13.7,2,10.28,0,15.42-2.71,15.42-8.12,0-2.57-1.31-4.36-3.92-5.37-2.62-1.01-6.81-1.97-12.6-2.89-6.06-.92-10.99-1.97-14.8-3.17-3.81-1.19-7.11-3.28-9.91-6.26-2.8-2.98-4.2-7.13-4.2-12.46,0-6.97,2.91-12.55,8.74-16.72,5.83-4.17,13.7-6.26,23.61-6.26,5.05,0,10.09,.57,15.14,1.72,5.05,1.15,9.18,2.68,12.39,4.61l-6.61,13.08c-6.24-3.67-13.26-5.51-21.06-5.51-5.05,0-8.88,.76-11.49,2.27-2.62,1.51-3.92,3.51-3.92,5.99,0,2.75,1.4,4.7,4.2,5.85,2.8,1.15,7.13,2.23,13.01,3.24,5.87,.92,10.69,1.97,14.45,3.17,3.76,1.19,7,3.21,9.7,6.06,2.71,2.85,4.06,6.88,4.06,12.11,0,6.88-2.98,12.39-8.95,16.52-5.97,4.13-14.09,6.19-24.36,6.19-5.97,0-11.79-.78-17.48-2.34Z"/>
                  <path class="cls-17" d="M778.26,1462.92c-2.11-1.97-3.17-4.43-3.17-7.36s1.05-5.39,3.17-7.36c2.11-1.97,4.73-2.96,7.85-2.96s5.73,.94,7.85,2.82c2.11,1.88,3.17,4.25,3.17,7.09,0,3.03-1.03,5.58-3.1,7.64-2.07,2.06-4.7,3.1-7.91,3.1s-5.74-.98-7.85-2.96Zm-.83,15.07h17.21v73.51h-17.21v-73.51Z"/>
                </g>
                <g>
                  <path class="cls-25" d="M164.49,1648.58h11.21c2.81,0,5.31,.56,7.49,1.67,2.18,1.12,3.87,2.68,5.07,4.69,1.2,2.01,1.81,4.33,1.81,6.94s-.6,4.92-1.81,6.93c-1.2,2.01-2.89,3.58-5.07,4.69-2.18,1.12-4.67,1.67-7.49,1.67h-11.21v-26.6Zm10.98,23.29c2.15,0,4.05-.42,5.68-1.25,1.63-.84,2.89-2.01,3.78-3.51,.89-1.51,1.33-3.25,1.33-5.22s-.44-3.72-1.33-5.23c-.89-1.51-2.15-2.68-3.78-3.51-1.63-.84-3.53-1.25-5.68-1.25h-7.18v19.99h7.18Z"/>
                  <path class="cls-25" d="M198.58,1674.08c-1.6-.89-2.84-2.11-3.74-3.67-.9-1.56-1.35-3.33-1.35-5.3s.45-3.74,1.35-5.3c.9-1.56,2.15-2.77,3.74-3.65,1.6-.87,3.39-1.31,5.4-1.31s3.79,.44,5.38,1.31c1.58,.87,2.83,2.09,3.72,3.65,.9,1.56,1.35,3.33,1.35,5.3s-.45,3.74-1.35,5.3c-.9,1.56-2.14,2.78-3.72,3.67-1.58,.89-3.38,1.33-5.38,1.33s-3.8-.44-5.4-1.33Zm8.87-2.75c1.03-.59,1.83-1.43,2.41-2.51,.58-1.08,.87-2.31,.87-3.7s-.29-2.63-.87-3.71c-.58-1.08-1.39-1.91-2.41-2.49-1.03-.58-2.19-.87-3.48-.87s-2.45,.29-3.48,.87c-1.03,.58-1.84,1.41-2.43,2.49-.59,1.08-.89,2.31-.89,3.71s.3,2.63,.89,3.7c.6,1.08,1.41,1.91,2.43,2.51,1.03,.6,2.18,.89,3.48,.89s2.45-.3,3.48-.89Z"/>
                  <path class="cls-25" d="M219.48,1646.99h3.65v28.2h-3.65v-28.2Z"/>
                  <path class="cls-25" d="M233.31,1674.08c-1.6-.89-2.84-2.11-3.74-3.67-.9-1.56-1.35-3.33-1.35-5.3s.45-3.74,1.35-5.3c.9-1.56,2.15-2.77,3.74-3.65,1.6-.87,3.39-1.31,5.4-1.31s3.79,.44,5.38,1.31c1.58,.87,2.83,2.09,3.72,3.65,.9,1.56,1.35,3.33,1.35,5.3s-.45,3.74-1.35,5.3-2.14,2.78-3.72,3.67c-1.58,.89-3.38,1.33-5.38,1.33s-3.8-.44-5.4-1.33Zm8.87-2.75c1.03-.59,1.83-1.43,2.41-2.51,.58-1.08,.87-2.31,.87-3.7s-.29-2.63-.87-3.71c-.58-1.08-1.39-1.91-2.41-2.49-1.03-.58-2.19-.87-3.48-.87s-2.45,.29-3.48,.87c-1.03,.58-1.84,1.41-2.43,2.49-.59,1.08-.89,2.31-.89,3.71s.3,2.63,.89,3.7c.6,1.08,1.41,1.91,2.43,2.51,1.03,.6,2.18,.89,3.48,.89s2.45-.3,3.48-.89Z"/>
                  <path class="cls-25" d="M260.52,1655.76c1.24-.61,2.75-.91,4.52-.91v3.54c-.2-.03-.48-.04-.84-.04-1.98,0-3.53,.59-4.66,1.77-1.13,1.18-1.69,2.86-1.69,5.04v10.03h-3.65v-20.14h3.5v3.38c.63-1.16,1.57-2.05,2.81-2.66Z"/>
                  <path class="cls-25" d="M281.03,1674.74c-1.52-.44-2.71-1.01-3.57-1.69l1.52-2.89c.89,.63,1.96,1.14,3.23,1.52,1.27,.38,2.55,.57,3.84,.57,3.19,0,4.79-.91,4.79-2.74,0-.61-.22-1.09-.65-1.44-.43-.35-.97-.61-1.62-.78-.65-.16-1.56-.35-2.75-.55-1.62-.25-2.94-.54-3.97-.87-1.03-.33-1.91-.89-2.64-1.67-.74-.79-1.1-1.89-1.1-3.31,0-1.82,.76-3.29,2.28-4.39,1.52-1.1,3.56-1.65,6.12-1.65,1.34,0,2.68,.17,4.03,.49,1.34,.33,2.45,.77,3.31,1.33l-1.56,2.89c-1.65-1.06-3.58-1.6-5.81-1.6-1.55,0-2.72,.25-3.53,.76-.81,.51-1.22,1.18-1.22,2.01,0,.66,.23,1.18,.68,1.56,.46,.38,1.02,.66,1.69,.84,.67,.18,1.62,.38,2.83,.61,1.62,.28,2.93,.58,3.93,.89,1,.32,1.86,.86,2.57,1.62,.71,.76,1.06,1.82,1.06,3.19,0,1.82-.78,3.27-2.34,4.35-1.56,1.08-3.68,1.62-6.37,1.62-1.65,0-3.23-.22-4.75-.66Z"/>
                  <path class="cls-25" d="M299.1,1650.48c-.47-.46-.7-1.01-.7-1.67s.23-1.22,.7-1.69c.47-.47,1.06-.7,1.77-.7s1.3,.22,1.77,.66c.47,.44,.7,1,.7,1.65s-.23,1.26-.7,1.73-1.06,.7-1.77,.7-1.3-.23-1.77-.68Zm-.06,4.56h3.65v20.14h-3.65v-20.14Z"/>
                  <path class="cls-25" d="M320.97,1674c-.53,.46-1.19,.8-1.98,1.04-.79,.24-1.6,.36-2.43,.36-2.03,0-3.6-.54-4.71-1.63-1.12-1.09-1.67-2.65-1.67-4.68v-11.06h-3.42v-3h3.42v-4.41h3.65v4.41h5.78v3h-5.78v10.91c0,1.09,.27,1.92,.82,2.51,.55,.58,1.32,.87,2.34,.87,1.11,0,2.06-.32,2.85-.95l1.14,2.62Z"/>
                  <path class="cls-25" d="M349.34,1656.9c1.48,1.37,2.22,3.41,2.22,6.12v12.16h-3.46v-2.66c-.61,.94-1.48,1.65-2.6,2.15-1.13,.49-2.46,.74-4.01,.74-2.26,0-4.06-.54-5.41-1.63-1.36-1.09-2.03-2.52-2.03-4.29s.65-3.2,1.94-4.28c1.29-1.08,3.34-1.62,6.16-1.62h5.78v-.72c0-1.57-.46-2.77-1.37-3.61-.91-.84-2.25-1.25-4.03-1.25-1.19,0-2.36,.2-3.5,.59-1.14,.39-2.1,.92-2.89,1.58l-1.52-2.74c1.04-.84,2.28-1.47,3.72-1.92,1.44-.44,2.98-.67,4.6-.67,2.79,0,4.92,.68,6.4,2.05Zm-3.63,14.76c1.01-.62,1.75-1.5,2.2-2.64v-2.81h-5.62c-3.09,0-4.64,1.04-4.64,3.12,0,1.01,.39,1.81,1.18,2.39,.79,.58,1.87,.87,3.27,.87s2.6-.31,3.61-.93Z"/>
                  <path class="cls-25" d="M389.54,1657.06c1.48,1.47,2.22,3.65,2.22,6.54v11.59h-3.65v-11.17c0-1.95-.45-3.42-1.35-4.41-.9-.99-2.19-1.48-3.86-1.48-1.85,0-3.32,.58-4.41,1.73-1.09,1.15-1.63,2.81-1.63,4.96v10.37h-3.65v-11.17c0-1.95-.45-3.42-1.35-4.41-.9-.99-2.19-1.48-3.86-1.48-1.85,0-3.32,.58-4.41,1.73-1.09,1.15-1.63,2.81-1.63,4.96v10.37h-3.65v-20.14h3.5v3c.73-1.04,1.7-1.83,2.89-2.38,1.19-.54,2.55-.82,4.07-.82s2.96,.32,4.18,.95c1.22,.63,2.15,1.56,2.81,2.77,.76-1.17,1.82-2.08,3.17-2.74,1.35-.66,2.88-.99,4.58-.99,2.53,0,4.54,.74,6.02,2.21Z"/>
                  <path class="cls-25" d="M416.73,1666.33h-16.34c.23,1.77,1.01,3.2,2.34,4.28,1.33,1.08,2.98,1.62,4.96,1.62,2.41,0,4.34-.81,5.81-2.43l2.01,2.36c-.91,1.06-2.05,1.88-3.4,2.43-1.36,.56-2.87,.84-4.54,.84-2.13,0-4.02-.44-5.66-1.31-1.65-.88-2.92-2.1-3.82-3.67-.9-1.57-1.35-3.34-1.35-5.32s.44-3.71,1.31-5.28c.87-1.57,2.08-2.79,3.61-3.67,1.53-.87,3.26-1.31,5.19-1.31s3.64,.44,5.15,1.31c1.51,.87,2.69,2.1,3.53,3.67,.85,1.57,1.27,3.37,1.27,5.4,0,.28-.03,.65-.08,1.1Zm-14.27-6.8c-1.18,1.06-1.87,2.46-2.07,4.18h12.92c-.2-1.7-.89-3.08-2.07-4.16-1.18-1.08-2.64-1.62-4.39-1.62s-3.21,.53-4.39,1.6Z"/>
                  <path class="cls-25" d="M433.18,1674c-.53,.46-1.19,.8-1.98,1.04-.79,.24-1.6,.36-2.43,.36-2.03,0-3.6-.54-4.71-1.63-1.12-1.09-1.67-2.65-1.67-4.68v-11.06h-3.42v-3h3.42v-4.41h3.65v4.41h5.78v3h-5.78v10.91c0,1.09,.27,1.92,.82,2.51,.55,.58,1.32,.87,2.34,.87,1.11,0,2.06-.32,2.85-.95l1.14,2.62Z"/>
                  <path class="cls-25" d="M440.65,1670.94c.47,.49,.7,1.11,.7,1.84,0,.38-.04,.75-.13,1.1-.09,.35-.26,.9-.51,1.63l-1.79,5.28h-2.39l1.41-5.66c-.48-.18-.87-.48-1.16-.89-.29-.42-.44-.91-.44-1.46,0-.76,.24-1.38,.72-1.86,.48-.48,1.09-.72,1.82-.72s1.3,.25,1.77,.74Z"/>
                  <path class="cls-25" d="M460.11,1674.08c-1.61-.89-2.87-2.11-3.78-3.67s-1.37-3.33-1.37-5.3,.46-3.74,1.37-5.3c.91-1.56,2.17-2.77,3.78-3.65,1.61-.87,3.44-1.31,5.49-1.31,1.82,0,3.45,.37,4.88,1.1,1.43,.74,2.54,1.8,3.32,3.19l-2.77,1.79c-.63-.96-1.42-1.68-2.36-2.17-.94-.48-1.98-.72-3.12-.72-1.32,0-2.5,.29-3.55,.87-1.05,.58-1.88,1.41-2.47,2.49-.6,1.08-.89,2.31-.89,3.71s.3,2.67,.89,3.74c.59,1.08,1.42,1.91,2.47,2.49,1.05,.58,2.24,.88,3.55,.88,1.14,0,2.18-.24,3.12-.72,.94-.48,1.72-1.2,2.36-2.17l2.77,1.75c-.79,1.39-1.89,2.46-3.32,3.21-1.43,.75-3.06,1.12-4.88,1.12-2.05,0-3.88-.44-5.49-1.33Z"/>
                  <path class="cls-25" d="M481.44,1674.08c-1.6-.89-2.84-2.11-3.74-3.67-.9-1.56-1.35-3.33-1.35-5.3s.45-3.74,1.35-5.3c.9-1.56,2.15-2.77,3.74-3.65,1.6-.87,3.39-1.31,5.4-1.31s3.79,.44,5.38,1.31c1.58,.87,2.82,2.09,3.72,3.65,.9,1.56,1.35,3.33,1.35,5.3s-.45,3.74-1.35,5.3-2.14,2.78-3.72,3.67c-1.58,.89-3.38,1.33-5.38,1.33s-3.8-.44-5.4-1.33Zm8.87-2.75c1.03-.59,1.83-1.43,2.41-2.51,.58-1.08,.87-2.31,.87-3.7s-.29-2.63-.87-3.71c-.58-1.08-1.39-1.91-2.41-2.49-1.03-.58-2.18-.87-3.48-.87s-2.45,.29-3.48,.87c-1.03,.58-1.84,1.41-2.43,2.49-.6,1.08-.89,2.31-.89,3.71s.3,2.63,.89,3.7c.6,1.08,1.41,1.91,2.43,2.51,1.03,.6,2.19,.89,3.48,.89s2.45-.3,3.48-.89Z"/>
                  <path class="cls-25" d="M519.19,1657.07c1.51,1.48,2.26,3.65,2.26,6.52v11.59h-3.65v-11.17c0-1.95-.47-3.42-1.41-4.41-.94-.99-2.28-1.48-4.03-1.48-1.98,0-3.53,.58-4.67,1.73-1.14,1.15-1.71,2.81-1.71,4.96v10.37h-3.65v-20.14h3.5v3.04c.73-1.04,1.73-1.84,2.98-2.39,1.25-.56,2.68-.84,4.27-.84,2.56,0,4.59,.74,6.1,2.22Z"/>
                  <path class="cls-25" d="M529.25,1674.74c-1.52-.44-2.71-1.01-3.57-1.69l1.52-2.89c.89,.63,1.96,1.14,3.23,1.52,1.27,.38,2.55,.57,3.84,.57,3.19,0,4.79-.91,4.79-2.74,0-.61-.21-1.09-.65-1.44-.43-.35-.97-.61-1.61-.78-.65-.16-1.56-.35-2.75-.55-1.62-.25-2.94-.54-3.97-.87s-1.91-.89-2.64-1.67c-.74-.79-1.1-1.89-1.1-3.31,0-1.82,.76-3.29,2.28-4.39,1.52-1.1,3.56-1.65,6.12-1.65,1.34,0,2.68,.17,4.03,.49,1.34,.33,2.44,.77,3.3,1.33l-1.56,2.89c-1.65-1.06-3.59-1.6-5.81-1.6-1.55,0-2.72,.25-3.53,.76-.81,.51-1.22,1.18-1.22,2.01,0,.66,.23,1.18,.68,1.56,.46,.38,1.02,.66,1.69,.84,.67,.18,1.62,.38,2.83,.61,1.62,.28,2.93,.58,3.93,.89,1,.32,1.86,.86,2.56,1.62,.71,.76,1.06,1.82,1.06,3.19,0,1.82-.78,3.27-2.34,4.35-1.56,1.08-3.68,1.62-6.36,1.62-1.65,0-3.23-.22-4.75-.66Z"/>
                  <path class="cls-25" d="M565.38,1666.33h-16.34c.23,1.77,1.01,3.2,2.34,4.28s2.98,1.62,4.96,1.62c2.41,0,4.34-.81,5.81-2.43l2.01,2.36c-.91,1.06-2.05,1.88-3.4,2.43-1.36,.56-2.87,.84-4.54,.84-2.13,0-4.02-.44-5.66-1.31-1.65-.88-2.92-2.1-3.82-3.67-.9-1.57-1.35-3.34-1.35-5.32s.44-3.71,1.31-5.28c.87-1.57,2.08-2.79,3.61-3.67,1.53-.87,3.26-1.31,5.19-1.31s3.64,.44,5.15,1.31c1.51,.87,2.69,2.1,3.53,3.67,.85,1.57,1.27,3.37,1.27,5.4,0,.28-.03,.65-.08,1.1Zm-14.27-6.8c-1.18,1.06-1.87,2.46-2.07,4.18h12.92c-.2-1.7-.89-3.08-2.07-4.16-1.18-1.08-2.64-1.62-4.39-1.62s-3.21,.53-4.39,1.6Z"/>
                  <path class="cls-25" d="M573.8,1674.08c-1.61-.89-2.87-2.11-3.78-3.67-.91-1.56-1.37-3.33-1.37-5.3s.46-3.74,1.37-5.3c.91-1.56,2.17-2.77,3.78-3.65,1.61-.87,3.44-1.31,5.49-1.31,1.82,0,3.45,.37,4.88,1.1,1.43,.74,2.54,1.8,3.33,3.19l-2.77,1.79c-.63-.96-1.42-1.68-2.36-2.17-.94-.48-1.98-.72-3.12-.72-1.32,0-2.5,.29-3.55,.87-1.05,.58-1.88,1.41-2.47,2.49-.6,1.08-.89,2.31-.89,3.71s.3,2.67,.89,3.74c.59,1.08,1.42,1.91,2.47,2.49,1.05,.58,2.24,.88,3.55,.88,1.14,0,2.18-.24,3.12-.72,.94-.48,1.72-1.2,2.36-2.17l2.77,1.75c-.79,1.39-1.89,2.46-3.33,3.21-1.43,.75-3.06,1.12-4.88,1.12-2.05,0-3.88-.44-5.49-1.33Z"/>
                  <path class="cls-25" d="M603.8,1674c-.53,.46-1.19,.8-1.98,1.04-.79,.24-1.6,.36-2.43,.36-2.03,0-3.6-.54-4.71-1.63-1.12-1.09-1.67-2.65-1.67-4.68v-11.06h-3.42v-3h3.42v-4.41h3.65v4.41h5.78v3h-5.78v10.91c0,1.09,.27,1.92,.82,2.51,.54,.58,1.32,.87,2.34,.87,1.11,0,2.06-.32,2.85-.95l1.14,2.62Z"/>
                  <path class="cls-25" d="M625.65,1666.33h-16.34c.23,1.77,1.01,3.2,2.34,4.28,1.33,1.08,2.98,1.62,4.96,1.62,2.41,0,4.34-.81,5.81-2.43l2.01,2.36c-.91,1.06-2.05,1.88-3.4,2.43-1.36,.56-2.87,.84-4.54,.84-2.13,0-4.02-.44-5.66-1.31-1.65-.88-2.92-2.1-3.82-3.67-.9-1.57-1.35-3.34-1.35-5.32s.44-3.71,1.31-5.28c.87-1.57,2.08-2.79,3.61-3.67,1.53-.87,3.26-1.31,5.19-1.31s3.64,.44,5.15,1.31c1.51,.87,2.69,2.1,3.53,3.67,.85,1.57,1.27,3.37,1.27,5.4,0,.28-.03,.65-.08,1.1Zm-14.27-6.8c-1.18,1.06-1.87,2.46-2.07,4.18h12.92c-.2-1.7-.89-3.08-2.07-4.16-1.18-1.08-2.64-1.62-4.39-1.62s-3.21,.53-4.39,1.6Z"/>
                  <path class="cls-25" d="M642.1,1674c-.53,.46-1.19,.8-1.98,1.04-.79,.24-1.6,.36-2.43,.36-2.03,0-3.6-.54-4.71-1.63-1.12-1.09-1.67-2.65-1.67-4.68v-11.06h-3.42v-3h3.42v-4.41h3.65v4.41h5.78v3h-5.78v10.91c0,1.09,.27,1.92,.82,2.51,.54,.58,1.32,.87,2.34,.87,1.11,0,2.06-.32,2.85-.95l1.14,2.62Z"/>
                  <path class="cls-25" d="M665.28,1655.04v20.14h-3.46v-3.04c-.74,1.04-1.7,1.84-2.91,2.41-1.2,.57-2.51,.86-3.93,.86-2.69,0-4.8-.74-6.35-2.22-1.55-1.48-2.32-3.67-2.32-6.55v-11.59h3.65v11.17c0,1.95,.47,3.43,1.41,4.43,.94,1,2.28,1.5,4.03,1.5,1.93,0,3.45-.58,4.56-1.75,1.11-1.17,1.67-2.81,1.67-4.94v-10.41h3.65Z"/>
                  <path class="cls-25" d="M678.54,1655.76c1.24-.61,2.75-.91,4.52-.91v3.54c-.2-.03-.48-.04-.84-.04-1.98,0-3.53,.59-4.66,1.77-1.13,1.18-1.69,2.86-1.69,5.04v10.03h-3.65v-20.14h3.5v3.38c.63-1.16,1.57-2.05,2.81-2.66Z"/>
                  <path class="cls-25" d="M711.78,1656.9c1.48,1.37,2.22,3.41,2.22,6.12v12.16h-3.46v-2.66c-.61,.94-1.48,1.65-2.6,2.15-1.13,.49-2.46,.74-4.01,.74-2.25,0-4.06-.54-5.41-1.63-1.36-1.09-2.03-2.52-2.03-4.29s.65-3.2,1.94-4.28c1.29-1.08,3.34-1.62,6.16-1.62h5.78v-.72c0-1.57-.46-2.77-1.37-3.61-.91-.84-2.26-1.25-4.03-1.25-1.19,0-2.36,.2-3.5,.59-1.14,.39-2.1,.92-2.89,1.58l-1.52-2.74c1.04-.84,2.28-1.47,3.72-1.92,1.44-.44,2.98-.67,4.6-.67,2.79,0,4.92,.68,6.4,2.05Zm-3.63,14.76c1.01-.62,1.75-1.5,2.2-2.64v-2.81h-5.62c-3.09,0-4.64,1.04-4.64,3.12,0,1.01,.39,1.81,1.18,2.39,.78,.58,1.87,.87,3.27,.87s2.6-.31,3.61-.93Z"/>
                  <path class="cls-25" d="M739.87,1646.99v28.2h-3.5v-3.19c-.81,1.12-1.84,1.96-3.08,2.55s-2.61,.87-4.1,.87c-1.95,0-3.7-.43-5.24-1.29-1.55-.86-2.75-2.07-3.63-3.63-.87-1.56-1.31-3.35-1.31-5.38s.44-3.81,1.31-5.36c.87-1.54,2.08-2.75,3.63-3.61,1.54-.86,3.29-1.29,5.24-1.29,1.44,0,2.77,.27,3.99,.82,1.22,.55,2.23,1.35,3.04,2.41v-11.1h3.65Zm-6.92,24.34c1.04-.59,1.85-1.43,2.43-2.51,.58-1.08,.87-2.31,.87-3.7s-.29-2.63-.87-3.71c-.58-1.08-1.39-1.91-2.43-2.49-1.04-.58-2.19-.87-3.46-.87s-2.45,.29-3.48,.87c-1.03,.58-1.84,1.41-2.43,2.49-.6,1.08-.89,2.31-.89,3.71s.3,2.63,.89,3.7c.59,1.08,1.41,1.91,2.43,2.51,1.03,.6,2.18,.89,3.48,.89s2.42-.3,3.46-.89Z"/>
                  <path class="cls-25" d="M746.85,1650.48c-.47-.46-.7-1.01-.7-1.67s.23-1.22,.7-1.69,1.06-.7,1.77-.7,1.3,.22,1.77,.66c.47,.44,.7,1,.7,1.65s-.23,1.26-.7,1.73-1.06,.7-1.77,.7-1.3-.23-1.77-.68Zm-.06,4.56h3.65v20.14h-3.65v-20.14Z"/>
                  <path class="cls-25" d="M773.31,1656.14c1.54,.86,2.75,2.06,3.63,3.61,.87,1.55,1.31,3.33,1.31,5.36s-.44,3.82-1.31,5.38c-.87,1.56-2.08,2.77-3.63,3.63-1.55,.86-3.29,1.29-5.24,1.29-1.44,0-2.77-.28-3.97-.84-1.2-.56-2.22-1.37-3.06-2.43v10.41h-3.65v-27.51h3.5v3.19c.81-1.12,1.84-1.96,3.08-2.53,1.24-.57,2.61-.86,4.1-.86,1.95,0,3.7,.43,5.24,1.29Zm-2.07,15.18c1.03-.59,1.84-1.43,2.43-2.51,.59-1.08,.89-2.31,.89-3.7s-.3-2.63-.89-3.71c-.6-1.08-1.41-1.91-2.43-2.49-1.03-.58-2.18-.87-3.48-.87s-2.41,.3-3.44,.89c-1.03,.6-1.84,1.42-2.43,2.49-.6,1.06-.89,2.29-.89,3.69s.29,2.63,.87,3.7c.58,1.08,1.39,1.91,2.43,2.51,1.04,.6,2.19,.89,3.46,.89s2.45-.3,3.48-.89Z"/>
                  <path class="cls-25" d="M783.37,1650.48c-.47-.46-.7-1.01-.7-1.67s.23-1.22,.7-1.69c.47-.47,1.06-.7,1.77-.7s1.3,.22,1.77,.66c.47,.44,.7,1,.7,1.65s-.23,1.26-.7,1.73-1.06,.7-1.77,.7-1.3-.23-1.77-.68Zm-.06,4.56h3.65v20.14h-3.65v-20.14Z"/>
                  <path class="cls-25" d="M794.94,1674.74c-1.52-.44-2.71-1.01-3.57-1.69l1.52-2.89c.89,.63,1.96,1.14,3.23,1.52,1.27,.38,2.55,.57,3.84,.57,3.19,0,4.79-.91,4.79-2.74,0-.61-.22-1.09-.65-1.44-.43-.35-.97-.61-1.61-.78-.65-.16-1.56-.35-2.75-.55-1.62-.25-2.95-.54-3.97-.87-1.03-.33-1.91-.89-2.64-1.67-.74-.79-1.1-1.89-1.1-3.31,0-1.82,.76-3.29,2.28-4.39,1.52-1.1,3.56-1.65,6.12-1.65,1.34,0,2.68,.17,4.03,.49,1.34,.33,2.44,.77,3.31,1.33l-1.56,2.89c-1.65-1.06-3.59-1.6-5.81-1.6-1.55,0-2.72,.25-3.53,.76-.81,.51-1.22,1.18-1.22,2.01,0,.66,.23,1.18,.68,1.56,.46,.38,1.02,.66,1.69,.84,.67,.18,1.62,.38,2.83,.61,1.62,.28,2.93,.58,3.93,.89,1,.32,1.86,.86,2.57,1.62,.71,.76,1.06,1.82,1.06,3.19,0,1.82-.78,3.27-2.34,4.35-1.56,1.08-3.68,1.62-6.36,1.62-1.65,0-3.23-.22-4.75-.66Z"/>
                  <path class="cls-25" d="M816.24,1674.08c-1.61-.89-2.87-2.11-3.78-3.67s-1.37-3.33-1.37-5.3,.46-3.74,1.37-5.3c.91-1.56,2.17-2.77,3.78-3.65,1.61-.87,3.44-1.31,5.49-1.31,1.82,0,3.45,.37,4.88,1.1,1.43,.74,2.54,1.8,3.33,3.19l-2.77,1.79c-.63-.96-1.42-1.68-2.36-2.17-.94-.48-1.98-.72-3.12-.72-1.32,0-2.5,.29-3.55,.87-1.05,.58-1.88,1.41-2.47,2.49-.6,1.08-.89,2.31-.89,3.71s.3,2.67,.89,3.74c.59,1.08,1.42,1.91,2.47,2.49,1.05,.58,2.24,.88,3.55,.88,1.14,0,2.18-.24,3.12-.72,.94-.48,1.72-1.2,2.36-2.17l2.77,1.75c-.79,1.39-1.89,2.46-3.33,3.21-1.43,.75-3.06,1.12-4.88,1.12-2.05,0-3.88-.44-5.49-1.33Z"/>
                  <path class="cls-25" d="M834.7,1650.48c-.47-.46-.7-1.01-.7-1.67s.23-1.22,.7-1.69c.47-.47,1.06-.7,1.77-.7s1.3,.22,1.77,.66c.47,.44,.7,1,.7,1.65s-.23,1.26-.7,1.73-1.06,.7-1.77,.7-1.3-.23-1.77-.68Zm-.06,4.56h3.65v20.14h-3.65v-20.14Z"/>
                  <path class="cls-25" d="M862.1,1657.07c1.51,1.48,2.26,3.65,2.26,6.52v11.59h-3.65v-11.17c0-1.95-.47-3.42-1.41-4.41-.94-.99-2.28-1.48-4.03-1.48-1.98,0-3.53,.58-4.67,1.73-1.14,1.15-1.71,2.81-1.71,4.96v10.37h-3.65v-20.14h3.5v3.04c.73-1.04,1.73-1.84,2.98-2.39,1.25-.56,2.68-.84,4.28-.84,2.56,0,4.59,.74,6.1,2.22Z"/>
                  <path class="cls-25" d="M890.51,1655.04v17.4c0,3.52-.87,6.12-2.62,7.81-1.75,1.68-4.36,2.53-7.83,2.53-1.9,0-3.71-.26-5.43-.78-1.72-.52-3.12-1.26-4.18-2.22l1.75-2.81c.94,.81,2.1,1.45,3.48,1.92,1.38,.47,2.81,.7,4.28,.7,2.36,0,4.1-.56,5.22-1.67,1.13-1.12,1.69-2.81,1.69-5.09v-1.6c-.86,1.04-1.92,1.82-3.17,2.34-1.25,.52-2.62,.78-4.08,.78-1.93,0-3.67-.41-5.23-1.23-1.56-.82-2.78-1.98-3.67-3.46-.89-1.48-1.33-3.17-1.33-5.07s.44-3.59,1.33-5.07c.89-1.48,2.11-2.63,3.67-3.44,1.56-.81,3.3-1.22,5.23-1.22,1.52,0,2.93,.28,4.24,.84,1.3,.56,2.38,1.38,3.21,2.47v-3.12h3.46Zm-6.93,15.28c1.05-.56,1.87-1.34,2.47-2.34,.59-1,.89-2.13,.89-3.4,0-1.95-.65-3.53-1.94-4.73s-2.95-1.81-4.98-1.81-3.72,.6-5.02,1.81c-1.29,1.2-1.94,2.78-1.94,4.73,0,1.27,.3,2.4,.89,3.4,.59,1,1.42,1.78,2.47,2.34,1.05,.56,2.25,.84,3.59,.84s2.5-.28,3.55-.84Z"/>
                  <path class="cls-25" d="M182.08,1721.33h-16.34c.23,1.77,1.01,3.2,2.34,4.28,1.33,1.08,2.98,1.62,4.96,1.62,2.41,0,4.34-.81,5.81-2.43l2.01,2.36c-.91,1.06-2.05,1.88-3.4,2.43-1.36,.56-2.87,.84-4.54,.84-2.13,0-4.01-.44-5.66-1.31-1.65-.88-2.92-2.1-3.82-3.67-.9-1.57-1.35-3.34-1.35-5.32s.44-3.71,1.31-5.28c.87-1.57,2.08-2.79,3.61-3.67,1.53-.87,3.26-1.31,5.19-1.31s3.64,.44,5.15,1.31c1.51,.87,2.68,2.1,3.53,3.67,.85,1.57,1.27,3.37,1.27,5.4,0,.28-.03,.65-.08,1.1Zm-14.27-6.8c-1.18,1.06-1.87,2.46-2.07,4.18h12.92c-.2-1.7-.89-3.08-2.07-4.16-1.18-1.08-2.64-1.62-4.39-1.62s-3.21,.53-4.39,1.6Z"/>
                  <path class="cls-25" d="M187.21,1701.99h3.65v28.2h-3.65v-28.2Z"/>
                  <path class="cls-25" d="M197.87,1705.48c-.47-.46-.7-1.01-.7-1.67s.23-1.22,.7-1.69c.47-.47,1.06-.7,1.77-.7s1.3,.22,1.77,.66c.47,.44,.7,1,.7,1.65s-.23,1.26-.7,1.73c-.47,.47-1.06,.7-1.77,.7s-1.3-.23-1.77-.68Zm-.06,4.56h3.65v20.14h-3.65v-20.14Z"/>
                  <path class="cls-25" d="M219.74,1729c-.53,.46-1.19,.8-1.98,1.04-.79,.24-1.6,.36-2.43,.36-2.03,0-3.6-.54-4.71-1.63-1.12-1.09-1.67-2.65-1.67-4.68v-11.06h-3.42v-3h3.42v-4.41h3.65v4.41h5.78v3h-5.78v10.91c0,1.09,.27,1.92,.82,2.51,.54,.58,1.32,.87,2.34,.87,1.11,0,2.06-.32,2.85-.95l1.14,2.62Z"/>
                  <path class="cls-25" d="M227.21,1725.94c.47,.49,.7,1.11,.7,1.84,0,.38-.04,.75-.13,1.1-.09,.35-.26,.9-.51,1.63l-1.79,5.28h-2.39l1.41-5.66c-.48-.18-.87-.48-1.16-.89-.29-.42-.44-.91-.44-1.46,0-.76,.24-1.38,.72-1.86,.48-.48,1.09-.72,1.82-.72s1.3,.25,1.77,.74Z"/>
                  <path class="cls-25" d="M244.4,1729.74c-1.52-.44-2.71-1.01-3.57-1.69l1.52-2.89c.89,.63,1.96,1.14,3.23,1.52,1.27,.38,2.55,.57,3.84,.57,3.19,0,4.79-.91,4.79-2.74,0-.61-.22-1.09-.65-1.44-.43-.35-.97-.61-1.62-.78-.65-.16-1.56-.35-2.75-.55-1.62-.25-2.94-.54-3.97-.87-1.03-.33-1.91-.89-2.64-1.67-.74-.79-1.1-1.89-1.1-3.31,0-1.82,.76-3.29,2.28-4.39,1.52-1.1,3.56-1.65,6.12-1.65,1.34,0,2.68,.17,4.03,.49,1.34,.33,2.44,.77,3.31,1.33l-1.56,2.89c-1.65-1.06-3.58-1.6-5.81-1.6-1.55,0-2.72,.25-3.53,.76-.81,.51-1.22,1.18-1.22,2.01,0,.66,.23,1.18,.68,1.56,.46,.38,1.02,.66,1.69,.84,.67,.18,1.62,.38,2.83,.61,1.62,.28,2.93,.58,3.93,.89,1,.32,1.86,.86,2.57,1.62,.71,.76,1.06,1.82,1.06,3.19,0,1.82-.78,3.27-2.34,4.35-1.56,1.08-3.68,1.62-6.37,1.62-1.65,0-3.23-.22-4.75-.66Z"/>
                  <path class="cls-25" d="M280.54,1721.33h-16.34c.23,1.77,1.01,3.2,2.34,4.28,1.33,1.08,2.98,1.62,4.96,1.62,2.41,0,4.34-.81,5.81-2.43l2.01,2.36c-.91,1.06-2.05,1.88-3.4,2.43-1.36,.56-2.87,.84-4.54,.84-2.13,0-4.01-.44-5.66-1.31-1.65-.88-2.92-2.1-3.82-3.67-.9-1.57-1.35-3.34-1.35-5.32s.44-3.71,1.31-5.28c.87-1.57,2.08-2.79,3.61-3.67,1.53-.87,3.26-1.31,5.19-1.31s3.64,.44,5.15,1.31c1.51,.87,2.68,2.1,3.53,3.67,.85,1.57,1.27,3.37,1.27,5.4,0,.28-.03,.65-.08,1.1Zm-14.27-6.8c-1.18,1.06-1.87,2.46-2.07,4.18h12.92c-.2-1.7-.89-3.08-2.07-4.16-1.18-1.08-2.64-1.62-4.39-1.62s-3.21,.53-4.39,1.6Z"/>
                  <path class="cls-25" d="M304.67,1701.99v28.2h-3.5v-3.19c-.81,1.12-1.84,1.96-3.08,2.55s-2.61,.87-4.1,.87c-1.95,0-3.7-.43-5.24-1.29-1.55-.86-2.75-2.07-3.63-3.63-.87-1.56-1.31-3.35-1.31-5.38s.44-3.81,1.31-5.36c.87-1.54,2.08-2.75,3.63-3.61,1.54-.86,3.29-1.29,5.24-1.29,1.44,0,2.77,.27,3.99,.82,1.22,.55,2.23,1.35,3.04,2.41v-11.1h3.65Zm-6.92,24.34c1.04-.59,1.85-1.43,2.43-2.51,.58-1.08,.87-2.31,.87-3.7s-.29-2.63-.87-3.71c-.58-1.08-1.39-1.91-2.43-2.49-1.04-.58-2.19-.87-3.46-.87s-2.45,.29-3.48,.87c-1.03,.58-1.84,1.41-2.43,2.49-.59,1.08-.89,2.31-.89,3.71s.3,2.63,.89,3.7c.6,1.08,1.41,1.91,2.43,2.51,1.03,.6,2.18,.89,3.48,.89s2.42-.3,3.46-.89Z"/>
                  <path class="cls-25" d="M339.93,1721.33h-16.34c.23,1.77,1.01,3.2,2.34,4.28,1.33,1.08,2.98,1.62,4.96,1.62,2.41,0,4.34-.81,5.81-2.43l2.01,2.36c-.91,1.06-2.05,1.88-3.4,2.43-1.36,.56-2.87,.84-4.54,.84-2.13,0-4.02-.44-5.66-1.31-1.65-.88-2.92-2.1-3.82-3.67-.9-1.57-1.35-3.34-1.35-5.32s.44-3.71,1.31-5.28c.87-1.57,2.08-2.79,3.61-3.67,1.53-.87,3.26-1.31,5.19-1.31s3.64,.44,5.15,1.31c1.51,.87,2.68,2.1,3.53,3.67,.85,1.57,1.27,3.37,1.27,5.4,0,.28-.03,.65-.08,1.1Zm-14.27-6.8c-1.18,1.06-1.87,2.46-2.07,4.18h12.92c-.2-1.7-.89-3.08-2.07-4.16-1.18-1.08-2.64-1.62-4.39-1.62s-3.21,.53-4.39,1.6Z"/>
                  <path class="cls-25" d="M345.12,1705.48c-.47-.46-.7-1.01-.7-1.67s.23-1.22,.7-1.69c.47-.47,1.06-.7,1.77-.7s1.3,.22,1.77,.66c.47,.44,.7,1,.7,1.65s-.23,1.26-.7,1.73-1.06,.7-1.77,.7-1.3-.23-1.77-.68Zm-.06,4.56h3.65v20.14h-3.65v-20.14Z"/>
                  <path class="cls-25" d="M374.44,1710.04v20.14h-3.46v-3.04c-.73,1.04-1.7,1.84-2.91,2.41-1.2,.57-2.52,.86-3.93,.86-2.69,0-4.8-.74-6.35-2.22-1.55-1.48-2.32-3.67-2.32-6.55v-11.59h3.65v11.17c0,1.95,.47,3.43,1.41,4.43,.94,1,2.28,1.5,4.03,1.5,1.92,0,3.45-.58,4.56-1.75,1.11-1.17,1.67-2.81,1.67-4.94v-10.41h3.65Z"/>
                  <path class="cls-25" d="M382.41,1729.74c-1.52-.44-2.71-1.01-3.57-1.69l1.52-2.89c.89,.63,1.96,1.14,3.23,1.52,1.27,.38,2.55,.57,3.84,.57,3.19,0,4.79-.91,4.79-2.74,0-.61-.22-1.09-.65-1.44-.43-.35-.97-.61-1.62-.78-.65-.16-1.56-.35-2.75-.55-1.62-.25-2.94-.54-3.97-.87-1.03-.33-1.91-.89-2.64-1.67-.74-.79-1.1-1.89-1.1-3.31,0-1.82,.76-3.29,2.28-4.39,1.52-1.1,3.56-1.65,6.12-1.65,1.34,0,2.69,.17,4.03,.49,1.34,.33,2.45,.77,3.31,1.33l-1.56,2.89c-1.65-1.06-3.59-1.6-5.81-1.6-1.55,0-2.72,.25-3.53,.76-.81,.51-1.22,1.18-1.22,2.01,0,.66,.23,1.18,.68,1.56,.46,.38,1.02,.66,1.69,.84,.67,.18,1.62,.38,2.83,.61,1.62,.28,2.93,.58,3.93,.89,1,.32,1.86,.86,2.57,1.62,.71,.76,1.06,1.82,1.06,3.19,0,1.82-.78,3.27-2.34,4.35-1.56,1.08-3.68,1.62-6.37,1.62-1.65,0-3.23-.22-4.75-.66Z"/>
                  <path class="cls-25" d="M431.64,1712.06c1.48,1.47,2.22,3.65,2.22,6.54v11.59h-3.65v-11.17c0-1.95-.45-3.42-1.35-4.41-.9-.99-2.19-1.48-3.86-1.48-1.85,0-3.32,.58-4.41,1.73-1.09,1.15-1.63,2.81-1.63,4.96v10.37h-3.65v-11.17c0-1.95-.45-3.42-1.35-4.41-.9-.99-2.18-1.48-3.86-1.48-1.85,0-3.32,.58-4.41,1.73-1.09,1.15-1.63,2.81-1.63,4.96v10.37h-3.65v-20.14h3.5v3c.73-1.04,1.7-1.83,2.89-2.38,1.19-.54,2.55-.82,4.07-.82s2.96,.32,4.18,.95c1.22,.63,2.15,1.56,2.81,2.77,.76-1.17,1.82-2.08,3.17-2.74,1.35-.66,2.88-.99,4.58-.99,2.53,0,4.54,.74,6.02,2.21Z"/>
                  <path class="cls-25" d="M443.94,1729.08c-1.6-.89-2.84-2.11-3.74-3.67-.9-1.56-1.35-3.33-1.35-5.3s.45-3.74,1.35-5.3c.9-1.56,2.15-2.77,3.74-3.65,1.6-.87,3.4-1.31,5.4-1.31s3.79,.44,5.38,1.31c1.58,.87,2.83,2.09,3.72,3.65,.9,1.56,1.35,3.33,1.35,5.3s-.45,3.74-1.35,5.3c-.9,1.56-2.14,2.78-3.72,3.67-1.58,.89-3.38,1.33-5.38,1.33s-3.8-.44-5.4-1.33Zm8.87-2.75c1.03-.59,1.83-1.43,2.41-2.51,.58-1.08,.87-2.31,.87-3.7s-.29-2.63-.87-3.71c-.58-1.08-1.39-1.91-2.41-2.49-1.03-.58-2.19-.87-3.48-.87s-2.45,.29-3.48,.87c-1.03,.58-1.84,1.41-2.43,2.49-.6,1.08-.89,2.31-.89,3.71s.3,2.63,.89,3.7c.6,1.08,1.41,1.91,2.43,2.51,1.03,.6,2.18,.89,3.48,.89s2.45-.3,3.48-.89Z"/>
                  <path class="cls-25" d="M483.84,1701.99v28.2h-3.5v-3.19c-.81,1.12-1.84,1.96-3.08,2.55s-2.61,.87-4.1,.87c-1.95,0-3.7-.43-5.24-1.29-1.55-.86-2.75-2.07-3.63-3.63-.87-1.56-1.31-3.35-1.31-5.38s.44-3.81,1.31-5.36c.87-1.54,2.08-2.75,3.63-3.61,1.54-.86,3.29-1.29,5.24-1.29,1.44,0,2.77,.27,3.99,.82,1.22,.55,2.23,1.35,3.04,2.41v-11.1h3.65Zm-6.92,24.34c1.04-.59,1.85-1.43,2.43-2.51,.58-1.08,.87-2.31,.87-3.7s-.29-2.63-.87-3.71c-.58-1.08-1.39-1.91-2.43-2.49-1.04-.58-2.19-.87-3.46-.87s-2.45,.29-3.48,.87c-1.03,.58-1.84,1.41-2.43,2.49-.6,1.08-.89,2.31-.89,3.71s.3,2.63,.89,3.7c.6,1.08,1.41,1.91,2.43,2.51,1.03,.6,2.18,.89,3.48,.89s2.42-.3,3.46-.89Z"/>
                  <path class="cls-25" d="M512.3,1729c-.53,.46-1.19,.8-1.98,1.04-.79,.24-1.6,.36-2.43,.36-2.03,0-3.6-.54-4.71-1.63-1.11-1.09-1.67-2.65-1.67-4.68v-11.06h-3.42v-3h3.42v-4.41h3.65v4.41h5.78v3h-5.78v10.91c0,1.09,.27,1.92,.82,2.51s1.32,.87,2.34,.87c1.11,0,2.06-.32,2.85-.95l1.14,2.62Z"/>
                  <path class="cls-25" d="M534.15,1721.33h-16.34c.23,1.77,1.01,3.2,2.34,4.28,1.33,1.08,2.98,1.62,4.96,1.62,2.41,0,4.34-.81,5.81-2.43l2.01,2.36c-.91,1.06-2.05,1.88-3.4,2.43-1.36,.56-2.87,.84-4.54,.84-2.13,0-4.02-.44-5.66-1.31-1.65-.88-2.92-2.1-3.82-3.67-.9-1.57-1.35-3.34-1.35-5.32s.44-3.71,1.31-5.28c.87-1.57,2.08-2.79,3.61-3.67,1.53-.87,3.26-1.31,5.19-1.31s3.64,.44,5.15,1.31c1.51,.87,2.69,2.1,3.53,3.67,.85,1.57,1.27,3.37,1.27,5.4,0,.28-.03,.65-.08,1.1Zm-14.27-6.8c-1.18,1.06-1.87,2.46-2.07,4.18h12.92c-.2-1.7-.89-3.08-2.07-4.16-1.18-1.08-2.64-1.62-4.39-1.62s-3.21,.53-4.39,1.6Z"/>
                  <path class="cls-25" d="M570.49,1712.06c1.48,1.47,2.22,3.65,2.22,6.54v11.59h-3.65v-11.17c0-1.95-.45-3.42-1.35-4.41-.9-.99-2.19-1.48-3.86-1.48-1.85,0-3.32,.58-4.41,1.73-1.09,1.15-1.63,2.81-1.63,4.96v10.37h-3.65v-11.17c0-1.95-.45-3.42-1.35-4.41-.9-.99-2.18-1.48-3.86-1.48-1.85,0-3.32,.58-4.41,1.73-1.09,1.15-1.63,2.81-1.63,4.96v10.37h-3.65v-20.14h3.5v3c.73-1.04,1.7-1.83,2.89-2.38,1.19-.54,2.55-.82,4.07-.82s2.96,.32,4.18,.95c1.22,.63,2.15,1.56,2.81,2.77,.76-1.17,1.82-2.08,3.17-2.74,1.35-.66,2.88-.99,4.58-.99,2.53,0,4.54,.74,6.02,2.21Z"/>
                  <path class="cls-25" d="M595.36,1711.14c1.54,.86,2.75,2.06,3.63,3.61,.87,1.55,1.31,3.33,1.31,5.36s-.44,3.82-1.31,5.38c-.87,1.56-2.08,2.77-3.63,3.63-1.55,.86-3.29,1.29-5.24,1.29-1.44,0-2.77-.28-3.97-.84-1.2-.56-2.22-1.37-3.06-2.43v10.41h-3.65v-27.51h3.5v3.19c.81-1.12,1.84-1.96,3.08-2.53,1.24-.57,2.61-.86,4.1-.86,1.95,0,3.7,.43,5.24,1.29Zm-2.07,15.18c1.03-.59,1.84-1.43,2.43-2.51,.59-1.08,.89-2.31,.89-3.7s-.3-2.63-.89-3.71c-.6-1.08-1.41-1.91-2.43-2.49-1.03-.58-2.18-.87-3.48-.87s-2.41,.3-3.44,.89c-1.03,.6-1.84,1.42-2.43,2.49-.6,1.06-.89,2.29-.89,3.69s.29,2.63,.87,3.7c.58,1.08,1.39,1.91,2.43,2.51,1.04,.6,2.19,.89,3.46,.89s2.45-.3,3.48-.89Z"/>
                  <path class="cls-25" d="M608.59,1729.08c-1.6-.89-2.84-2.11-3.74-3.67-.9-1.56-1.35-3.33-1.35-5.3s.45-3.74,1.35-5.3c.9-1.56,2.15-2.77,3.74-3.65,1.6-.87,3.39-1.31,5.4-1.31s3.79,.44,5.38,1.31c1.58,.87,2.82,2.09,3.72,3.65,.9,1.56,1.35,3.33,1.35,5.3s-.45,3.74-1.35,5.3c-.9,1.56-2.14,2.78-3.72,3.67-1.58,.89-3.38,1.33-5.38,1.33s-3.8-.44-5.4-1.33Zm8.87-2.75c1.03-.59,1.83-1.43,2.41-2.51,.58-1.08,.87-2.31,.87-3.7s-.29-2.63-.87-3.71c-.58-1.08-1.39-1.91-2.41-2.49-1.03-.58-2.18-.87-3.48-.87s-2.45,.29-3.48,.87c-1.03,.58-1.84,1.41-2.43,2.49-.6,1.08-.89,2.31-.89,3.71s.3,2.63,.89,3.7c.59,1.08,1.41,1.91,2.43,2.51,1.03,.6,2.18,.89,3.48,.89s2.45-.3,3.48-.89Z"/>
                  <path class="cls-25" d="M635.8,1710.76c1.24-.61,2.75-.91,4.52-.91v3.54c-.2-.03-.48-.04-.84-.04-1.98,0-3.53,.59-4.66,1.77-1.13,1.18-1.69,2.86-1.69,5.04v10.03h-3.65v-20.14h3.5v3.38c.63-1.16,1.57-2.05,2.81-2.66Z"/>
                  <path class="cls-25" d="M655.35,1705.48c-.47-.46-.7-1.01-.7-1.67s.23-1.22,.7-1.69c.47-.47,1.06-.7,1.77-.7s1.3,.22,1.77,.66c.47,.44,.7,1,.7,1.65s-.23,1.26-.7,1.73c-.47,.47-1.06,.7-1.77,.7s-1.3-.23-1.77-.68Zm-.06,4.56h3.65v20.14h-3.65v-20.14Z"/>
                  <path class="cls-25" d="M682.74,1712.07c1.51,1.48,2.26,3.65,2.26,6.52v11.59h-3.65v-11.17c0-1.95-.47-3.42-1.41-4.41-.94-.99-2.28-1.48-4.03-1.48-1.98,0-3.53,.58-4.67,1.73-1.14,1.15-1.71,2.81-1.71,4.96v10.37h-3.65v-20.14h3.5v3.04c.73-1.04,1.73-1.84,2.98-2.39,1.25-.56,2.68-.84,4.28-.84,2.56,0,4.59,.74,6.1,2.22Z"/>
                  <path class="cls-25" d="M695.17,1729.08c-1.61-.89-2.87-2.11-3.78-3.67s-1.37-3.33-1.37-5.3,.46-3.74,1.37-5.3c.91-1.56,2.17-2.77,3.78-3.65,1.61-.87,3.44-1.31,5.49-1.31,1.82,0,3.45,.37,4.88,1.1,1.43,.74,2.54,1.8,3.33,3.19l-2.77,1.79c-.63-.96-1.42-1.68-2.36-2.17-.94-.48-1.98-.72-3.12-.72-1.32,0-2.5,.29-3.55,.87-1.05,.58-1.88,1.41-2.47,2.49-.6,1.08-.89,2.31-.89,3.71s.3,2.67,.89,3.74c.59,1.08,1.42,1.91,2.47,2.49,1.05,.58,2.24,.88,3.55,.88,1.14,0,2.18-.24,3.12-.72,.94-.48,1.72-1.2,2.36-2.17l2.77,1.75c-.79,1.39-1.89,2.46-3.33,3.21-1.43,.75-3.06,1.12-4.88,1.12-2.05,0-3.88-.44-5.49-1.33Z"/>
                  <path class="cls-25" d="M713.64,1705.48c-.47-.46-.7-1.01-.7-1.67s.23-1.22,.7-1.69,1.06-.7,1.77-.7,1.3,.22,1.77,.66c.47,.44,.7,1,.7,1.65s-.23,1.26-.7,1.73c-.47,.47-1.06,.7-1.77,.7s-1.3-.23-1.77-.68Zm-.06,4.56h3.65v20.14h-3.65v-20.14Z"/>
                  <path class="cls-25" d="M743.18,1701.99v28.2h-3.5v-3.19c-.81,1.12-1.84,1.96-3.08,2.55s-2.61,.87-4.1,.87c-1.95,0-3.7-.43-5.24-1.29-1.55-.86-2.75-2.07-3.63-3.63-.87-1.56-1.31-3.35-1.31-5.38s.44-3.81,1.31-5.36c.87-1.54,2.08-2.75,3.63-3.61,1.55-.86,3.29-1.29,5.24-1.29,1.44,0,2.77,.27,3.99,.82,1.22,.55,2.23,1.35,3.04,2.41v-11.1h3.65Zm-6.92,24.34c1.04-.59,1.85-1.43,2.43-2.51,.58-1.08,.87-2.31,.87-3.7s-.29-2.63-.87-3.71c-.58-1.08-1.39-1.91-2.43-2.49-1.04-.58-2.19-.87-3.46-.87s-2.45,.29-3.48,.87c-1.03,.58-1.84,1.41-2.43,2.49-.6,1.08-.89,2.31-.89,3.71s.3,2.63,.89,3.7c.59,1.08,1.41,1.91,2.43,2.51,1.03,.6,2.18,.89,3.48,.89s2.42-.3,3.46-.89Z"/>
                  <path class="cls-25" d="M750.16,1705.48c-.47-.46-.7-1.01-.7-1.67s.23-1.22,.7-1.69,1.06-.7,1.77-.7,1.3,.22,1.77,.66c.47,.44,.7,1,.7,1.65s-.23,1.26-.7,1.73c-.47,.47-1.06,.7-1.77,.7s-1.3-.23-1.77-.68Zm-.06,4.56h3.65v20.14h-3.65v-20.14Z"/>
                  <path class="cls-25" d="M779.7,1701.99v28.2h-3.5v-3.19c-.81,1.12-1.84,1.96-3.08,2.55s-2.61,.87-4.1,.87c-1.95,0-3.7-.43-5.24-1.29-1.55-.86-2.75-2.07-3.63-3.63-.87-1.56-1.31-3.35-1.31-5.38s.44-3.81,1.31-5.36c.87-1.54,2.08-2.75,3.63-3.61,1.54-.86,3.29-1.29,5.24-1.29,1.44,0,2.77,.27,3.99,.82,1.22,.55,2.23,1.35,3.04,2.41v-11.1h3.65Zm-6.92,24.34c1.04-.59,1.85-1.43,2.43-2.51,.58-1.08,.87-2.31,.87-3.7s-.29-2.63-.87-3.71c-.58-1.08-1.39-1.91-2.43-2.49-1.04-.58-2.19-.87-3.46-.87s-2.45,.29-3.48,.87c-1.03,.58-1.84,1.41-2.43,2.49-.6,1.08-.89,2.31-.89,3.71s.3,2.63,.89,3.7c.59,1.08,1.41,1.91,2.43,2.51,1.03,.6,2.18,.89,3.48,.89s2.42-.3,3.46-.89Z"/>
                  <path class="cls-25" d="M805.39,1710.04v20.14h-3.46v-3.04c-.74,1.04-1.7,1.84-2.91,2.41-1.2,.57-2.51,.86-3.93,.86-2.69,0-4.8-.74-6.35-2.22-1.55-1.48-2.32-3.67-2.32-6.55v-11.59h3.65v11.17c0,1.95,.47,3.43,1.41,4.43,.94,1,2.28,1.5,4.03,1.5,1.93,0,3.45-.58,4.56-1.75,1.11-1.17,1.67-2.81,1.67-4.94v-10.41h3.65Z"/>
                  <path class="cls-25" d="M829.19,1712.07c1.51,1.48,2.26,3.65,2.26,6.52v11.59h-3.65v-11.17c0-1.95-.47-3.42-1.41-4.41-.94-.99-2.28-1.48-4.03-1.48-1.98,0-3.53,.58-4.67,1.73-1.14,1.15-1.71,2.81-1.71,4.96v10.37h-3.65v-20.14h3.5v3.04c.73-1.04,1.73-1.84,2.98-2.39,1.25-.56,2.68-.84,4.28-.84,2.56,0,4.59,.74,6.1,2.22Z"/>
                  <path class="cls-25" d="M849.54,1729c-.53,.46-1.19,.8-1.98,1.04-.79,.24-1.6,.36-2.43,.36-2.03,0-3.6-.54-4.71-1.63-1.12-1.09-1.67-2.65-1.67-4.68v-11.06h-3.42v-3h3.42v-4.41h3.65v4.41h5.78v3h-5.78v10.91c0,1.09,.27,1.92,.82,2.51,.54,.58,1.32,.87,2.34,.87,1.11,0,2.06-.32,2.85-.95l1.14,2.62Z"/>
                  <path class="cls-25" d="M882.95,1710.04v20.14h-3.46v-3.04c-.74,1.04-1.7,1.84-2.91,2.41-1.2,.57-2.51,.86-3.93,.86-2.69,0-4.8-.74-6.35-2.22-1.55-1.48-2.32-3.67-2.32-6.55v-11.59h3.65v11.17c0,1.95,.47,3.43,1.41,4.43,.94,1,2.28,1.5,4.03,1.5,1.93,0,3.45-.58,4.56-1.75,1.11-1.17,1.67-2.81,1.67-4.94v-10.41h3.65Z"/>
                  <path class="cls-25" d="M901.22,1729c-.53,.46-1.19,.8-1.98,1.04s-1.6,.36-2.43,.36c-2.03,0-3.6-.54-4.71-1.63-1.12-1.09-1.67-2.65-1.67-4.68v-11.06h-3.42v-3h3.42v-4.41h3.65v4.41h5.78v3h-5.78v10.91c0,1.09,.27,1.92,.82,2.51,.54,.58,1.32,.87,2.34,.87,1.11,0,2.06-.32,2.85-.95l1.14,2.62Z"/>
                  <path class="cls-25" d="M163.96,1756.99h3.65v28.2h-3.65v-28.2Z"/>
                  <path class="cls-25" d="M188.3,1766.9c1.48,1.37,2.22,3.41,2.22,6.12v12.16h-3.46v-2.66c-.61,.94-1.48,1.65-2.6,2.15-1.13,.49-2.46,.74-4.01,.74-2.26,0-4.06-.54-5.41-1.63-1.36-1.09-2.03-2.52-2.03-4.29s.65-3.2,1.94-4.28c1.29-1.08,3.34-1.62,6.16-1.62h5.78v-.72c0-1.57-.46-2.77-1.37-3.61-.91-.84-2.25-1.25-4.03-1.25-1.19,0-2.36,.2-3.5,.59-1.14,.39-2.1,.92-2.89,1.58l-1.52-2.74c1.04-.84,2.28-1.47,3.72-1.92,1.44-.44,2.98-.67,4.6-.67,2.79,0,4.92,.68,6.4,2.05Zm-3.63,14.76c1.01-.62,1.75-1.5,2.2-2.64v-2.81h-5.62c-3.09,0-4.64,1.04-4.64,3.12,0,1.01,.39,1.81,1.18,2.39,.79,.58,1.87,.87,3.27,.87s2.6-.31,3.61-.93Z"/>
                  <path class="cls-25" d="M213.21,1766.14c1.54,.86,2.75,2.06,3.63,3.61,.87,1.55,1.31,3.33,1.31,5.36s-.44,3.82-1.31,5.38c-.87,1.56-2.08,2.77-3.63,3.63-1.54,.86-3.29,1.29-5.24,1.29-1.5,0-2.86-.29-4.1-.87s-2.27-1.43-3.08-2.55v3.19h-3.5v-28.2h3.65v11.1c.81-1.06,1.82-1.87,3.04-2.41,1.22-.54,2.55-.82,3.99-.82,1.95,0,3.7,.43,5.24,1.29Zm-2.07,15.18c1.03-.59,1.84-1.43,2.43-2.51,.59-1.08,.89-2.31,.89-3.7s-.3-2.63-.89-3.71c-.6-1.08-1.41-1.91-2.43-2.49-1.03-.58-2.19-.87-3.48-.87s-2.42,.29-3.46,.87c-1.04,.58-1.85,1.41-2.43,2.49-.58,1.08-.87,2.31-.87,3.71s.29,2.63,.87,3.7c.58,1.08,1.39,1.91,2.43,2.51,1.04,.6,2.19,.89,3.46,.89s2.45-.3,3.48-.89Z"/>
                  <path class="cls-25" d="M226.43,1784.08c-1.6-.89-2.84-2.11-3.74-3.67-.9-1.56-1.35-3.33-1.35-5.3s.45-3.74,1.35-5.3c.9-1.56,2.15-2.77,3.74-3.65,1.6-.87,3.39-1.31,5.4-1.31s3.79,.44,5.38,1.31c1.58,.87,2.82,2.09,3.72,3.65,.9,1.56,1.35,3.33,1.35,5.3s-.45,3.74-1.35,5.3-2.14,2.78-3.72,3.67c-1.58,.89-3.38,1.33-5.38,1.33s-3.8-.44-5.4-1.33Zm8.87-2.75c1.03-.59,1.83-1.43,2.41-2.51,.58-1.08,.87-2.31,.87-3.7s-.29-2.63-.87-3.71c-.58-1.08-1.39-1.91-2.41-2.49-1.03-.58-2.18-.87-3.48-.87s-2.45,.29-3.48,.87c-1.03,.58-1.84,1.41-2.43,2.49-.6,1.08-.89,2.31-.89,3.71s.3,2.63,.89,3.7c.59,1.08,1.41,1.91,2.43,2.51,1.03,.6,2.19,.89,3.48,.89s2.45-.3,3.48-.89Z"/>
                  <path class="cls-25" d="M253.64,1765.76c1.24-.61,2.75-.91,4.52-.91v3.54c-.2-.03-.48-.04-.84-.04-1.98,0-3.53,.59-4.66,1.77-1.13,1.18-1.69,2.86-1.69,5.04v10.03h-3.65v-20.14h3.5v3.38c.63-1.16,1.57-2.05,2.81-2.66Z"/>
                  <path class="cls-25" d="M280.58,1776.33h-16.34c.23,1.77,1.01,3.2,2.34,4.28s2.98,1.62,4.96,1.62c2.41,0,4.34-.81,5.81-2.43l2.01,2.36c-.91,1.06-2.05,1.88-3.4,2.43-1.36,.56-2.87,.84-4.54,.84-2.13,0-4.02-.44-5.66-1.31-1.65-.88-2.92-2.1-3.82-3.67-.9-1.57-1.35-3.34-1.35-5.32s.44-3.71,1.31-5.28c.87-1.57,2.08-2.79,3.61-3.67,1.53-.87,3.26-1.31,5.19-1.31s3.64,.44,5.15,1.31c1.51,.87,2.69,2.1,3.53,3.67,.85,1.57,1.27,3.37,1.27,5.4,0,.28-.03,.65-.08,1.1Zm-14.27-6.8c-1.18,1.06-1.87,2.46-2.07,4.18h12.92c-.2-1.7-.89-3.08-2.07-4.16-1.18-1.08-2.64-1.62-4.39-1.62s-3.21,.53-4.39,1.6Z"/>
                  <path class="cls-25" d="M314.06,1776.33h-16.34c.23,1.77,1.01,3.2,2.34,4.28s2.98,1.62,4.96,1.62c2.41,0,4.34-.81,5.81-2.43l2.01,2.36c-.91,1.06-2.05,1.88-3.4,2.43-1.36,.56-2.87,.84-4.54,.84-2.13,0-4.02-.44-5.66-1.31-1.65-.88-2.92-2.1-3.82-3.67-.9-1.57-1.35-3.34-1.35-5.32s.44-3.71,1.31-5.28c.87-1.57,2.08-2.79,3.61-3.67,1.53-.87,3.26-1.31,5.19-1.31s3.64,.44,5.15,1.31c1.51,.87,2.69,2.1,3.53,3.67,.85,1.57,1.27,3.37,1.27,5.4,0,.28-.03,.65-.08,1.1Zm-14.27-6.8c-1.18,1.06-1.87,2.46-2.07,4.18h12.92c-.2-1.7-.89-3.08-2.07-4.16-1.18-1.08-2.64-1.62-4.39-1.62s-3.21,.53-4.39,1.6Z"/>
                  <path class="cls-25" d="M330.51,1784c-.53,.46-1.19,.8-1.98,1.04-.79,.24-1.6,.36-2.43,.36-2.03,0-3.6-.54-4.71-1.63-1.12-1.09-1.67-2.65-1.67-4.68v-11.06h-3.42v-3h3.42v-4.41h3.65v4.41h5.78v3h-5.78v10.91c0,1.09,.27,1.92,.82,2.51,.54,.58,1.32,.87,2.34,.87,1.11,0,2.06-.32,2.85-.95l1.14,2.62Z"/>
                  <path class="cls-25" d="M364.14,1756.99v28.2h-3.5v-3.19c-.81,1.12-1.84,1.96-3.08,2.55-1.24,.58-2.61,.87-4.1,.87-1.95,0-3.7-.43-5.24-1.29-1.55-.86-2.76-2.07-3.63-3.63-.87-1.56-1.31-3.35-1.31-5.38s.44-3.81,1.31-5.36c.87-1.54,2.08-2.75,3.63-3.61,1.54-.86,3.29-1.29,5.24-1.29,1.44,0,2.77,.27,3.99,.82,1.22,.55,2.23,1.35,3.04,2.41v-11.1h3.65Zm-6.92,24.34c1.04-.59,1.85-1.43,2.43-2.51,.58-1.08,.87-2.31,.87-3.7s-.29-2.63-.87-3.71c-.58-1.08-1.39-1.91-2.43-2.49-1.04-.58-2.19-.87-3.46-.87s-2.45,.29-3.48,.87c-1.03,.58-1.84,1.41-2.43,2.49-.6,1.08-.89,2.31-.89,3.71s.3,2.63,.89,3.7c.59,1.08,1.41,1.91,2.43,2.51,1.03,.6,2.19,.89,3.48,.89s2.42-.3,3.46-.89Z"/>
                  <path class="cls-25" d="M374.29,1784.08c-1.6-.89-2.84-2.11-3.74-3.67-.9-1.56-1.35-3.33-1.35-5.3s.45-3.74,1.35-5.3c.9-1.56,2.15-2.77,3.74-3.65,1.6-.87,3.39-1.31,5.4-1.31s3.79,.44,5.38,1.31c1.58,.87,2.82,2.09,3.72,3.65,.9,1.56,1.35,3.33,1.35,5.3s-.45,3.74-1.35,5.3c-.9,1.56-2.14,2.78-3.72,3.67-1.58,.89-3.38,1.33-5.38,1.33s-3.8-.44-5.4-1.33Zm8.87-2.75c1.03-.59,1.83-1.43,2.41-2.51,.58-1.08,.87-2.31,.87-3.7s-.29-2.63-.87-3.71c-.58-1.08-1.39-1.91-2.41-2.49-1.03-.58-2.19-.87-3.48-.87s-2.45,.29-3.48,.87c-1.03,.58-1.84,1.41-2.43,2.49-.59,1.08-.89,2.31-.89,3.71s.3,2.63,.89,3.7c.6,1.08,1.41,1.91,2.43,2.51,1.03,.6,2.18,.89,3.48,.89s2.45-.3,3.48-.89Z"/>
                  <path class="cls-25" d="M395.18,1756.99h3.65v28.2h-3.65v-28.2Z"/>
                  <path class="cls-25" d="M409.02,1784.08c-1.6-.89-2.84-2.11-3.74-3.67-.9-1.56-1.35-3.33-1.35-5.3s.45-3.74,1.35-5.3c.9-1.56,2.15-2.77,3.74-3.65,1.6-.87,3.39-1.31,5.4-1.31s3.79,.44,5.38,1.31c1.58,.87,2.83,2.09,3.72,3.65,.9,1.56,1.35,3.33,1.35,5.3s-.45,3.74-1.35,5.3c-.9,1.56-2.14,2.78-3.72,3.67-1.58,.89-3.38,1.33-5.38,1.33s-3.8-.44-5.4-1.33Zm8.87-2.75c1.03-.59,1.83-1.43,2.41-2.51,.58-1.08,.87-2.31,.87-3.7s-.29-2.63-.87-3.71c-.58-1.08-1.39-1.91-2.41-2.49-1.03-.58-2.19-.87-3.48-.87s-2.45,.29-3.48,.87c-1.03,.58-1.84,1.41-2.43,2.49-.59,1.08-.89,2.31-.89,3.71s.3,2.63,.89,3.7c.6,1.08,1.41,1.91,2.43,2.51,1.03,.6,2.19,.89,3.48,.89s2.45-.3,3.48-.89Z"/>
                  <path class="cls-25" d="M436.22,1765.76c1.24-.61,2.75-.91,4.52-.91v3.54c-.2-.03-.48-.04-.84-.04-1.98,0-3.53,.59-4.66,1.77-1.13,1.18-1.69,2.86-1.69,5.04v10.03h-3.65v-20.14h3.5v3.38c.63-1.16,1.57-2.05,2.81-2.66Z"/>
                  <path class="cls-25" d="M463.17,1776.33h-16.34c.23,1.77,1.01,3.2,2.34,4.28,1.33,1.08,2.98,1.62,4.96,1.62,2.41,0,4.34-.81,5.81-2.43l2.01,2.36c-.91,1.06-2.05,1.88-3.4,2.43-1.35,.56-2.87,.84-4.54,.84-2.13,0-4.02-.44-5.66-1.31-1.65-.88-2.92-2.1-3.82-3.67-.9-1.57-1.35-3.34-1.35-5.32s.44-3.71,1.31-5.28c.87-1.57,2.08-2.79,3.61-3.67,1.53-.87,3.26-1.31,5.19-1.31s3.64,.44,5.15,1.31c1.51,.87,2.69,2.1,3.53,3.67,.85,1.57,1.27,3.37,1.27,5.4,0,.28-.03,.65-.08,1.1Zm-14.27-6.8c-1.18,1.06-1.87,2.46-2.07,4.18h12.92c-.2-1.7-.89-3.08-2.07-4.16-1.18-1.08-2.64-1.62-4.39-1.62s-3.21,.53-4.39,1.6Z"/>
                  <path class="cls-25" d="M509.73,1767.06c1.48,1.47,2.22,3.65,2.22,6.54v11.59h-3.65v-11.17c0-1.95-.45-3.42-1.35-4.41-.9-.99-2.18-1.48-3.86-1.48-1.85,0-3.32,.58-4.41,1.73-1.09,1.15-1.63,2.81-1.63,4.96v10.37h-3.65v-11.17c0-1.95-.45-3.42-1.35-4.41-.9-.99-2.19-1.48-3.86-1.48-1.85,0-3.32,.58-4.41,1.73-1.09,1.15-1.63,2.81-1.63,4.96v10.37h-3.65v-20.14h3.5v3c.73-1.04,1.7-1.83,2.89-2.38,1.19-.54,2.55-.82,4.07-.82s2.96,.32,4.18,.95c1.22,.63,2.15,1.56,2.81,2.77,.76-1.17,1.82-2.08,3.17-2.74,1.35-.66,2.88-.99,4.58-.99,2.53,0,4.54,.74,6.02,2.21Z"/>
                  <path class="cls-25" d="M532.42,1766.9c1.48,1.37,2.22,3.41,2.22,6.12v12.16h-3.46v-2.66c-.61,.94-1.48,1.65-2.6,2.15-1.13,.49-2.46,.74-4.01,.74-2.26,0-4.06-.54-5.41-1.63-1.36-1.09-2.03-2.52-2.03-4.29s.65-3.2,1.94-4.28c1.29-1.08,3.34-1.62,6.16-1.62h5.78v-.72c0-1.57-.46-2.77-1.37-3.61-.91-.84-2.25-1.25-4.03-1.25-1.19,0-2.36,.2-3.5,.59-1.14,.39-2.1,.92-2.89,1.58l-1.52-2.74c1.04-.84,2.28-1.47,3.72-1.92,1.44-.44,2.98-.67,4.6-.67,2.79,0,4.92,.68,6.4,2.05Zm-3.63,14.76c1.01-.62,1.75-1.5,2.2-2.64v-2.81h-5.62c-3.09,0-4.64,1.04-4.64,3.12,0,1.01,.39,1.81,1.18,2.39,.78,.58,1.87,.87,3.27,.87s2.6-.31,3.61-.93Z"/>
                  <path class="cls-25" d="M560.79,1765.04v17.4c0,3.52-.87,6.12-2.62,7.81-1.75,1.68-4.36,2.53-7.83,2.53-1.9,0-3.71-.26-5.43-.78-1.72-.52-3.12-1.26-4.18-2.22l1.75-2.81c.94,.81,2.1,1.45,3.48,1.92,1.38,.47,2.81,.7,4.28,.7,2.36,0,4.1-.56,5.22-1.67,1.13-1.12,1.69-2.81,1.69-5.09v-1.6c-.86,1.04-1.92,1.82-3.17,2.34-1.25,.52-2.62,.78-4.08,.78-1.93,0-3.67-.41-5.23-1.23-1.56-.82-2.78-1.98-3.67-3.46-.89-1.48-1.33-3.17-1.33-5.07s.44-3.59,1.33-5.07c.89-1.48,2.11-2.63,3.67-3.44,1.56-.81,3.3-1.22,5.23-1.22,1.52,0,2.93,.28,4.24,.84,1.3,.56,2.38,1.38,3.21,2.47v-3.12h3.46Zm-6.93,15.28c1.05-.56,1.87-1.34,2.47-2.34,.59-1,.89-2.13,.89-3.4,0-1.95-.65-3.53-1.94-4.73s-2.95-1.81-4.98-1.81-3.72,.6-5.02,1.81-1.94,2.78-1.94,4.73c0,1.27,.3,2.4,.89,3.4,.59,1,1.42,1.78,2.47,2.34,1.05,.56,2.25,.84,3.59,.84s2.5-.28,3.55-.84Z"/>
                  <path class="cls-25" d="M584.59,1767.07c1.51,1.48,2.26,3.65,2.26,6.52v11.59h-3.65v-11.17c0-1.95-.47-3.42-1.41-4.41-.94-.99-2.28-1.48-4.03-1.48-1.98,0-3.53,.58-4.67,1.73-1.14,1.15-1.71,2.81-1.71,4.96v10.37h-3.65v-20.14h3.5v3.04c.73-1.04,1.73-1.84,2.98-2.39,1.26-.56,2.68-.84,4.28-.84,2.56,0,4.59,.74,6.1,2.22Z"/>
                  <path class="cls-25" d="M607.36,1766.9c1.48,1.37,2.22,3.41,2.22,6.12v12.16h-3.46v-2.66c-.61,.94-1.48,1.65-2.6,2.15-1.13,.49-2.46,.74-4.01,.74-2.25,0-4.06-.54-5.42-1.63-1.36-1.09-2.03-2.52-2.03-4.29s.65-3.2,1.94-4.28c1.29-1.08,3.34-1.62,6.16-1.62h5.78v-.72c0-1.57-.46-2.77-1.37-3.61-.91-.84-2.26-1.25-4.03-1.25-1.19,0-2.36,.2-3.5,.59-1.14,.39-2.1,.92-2.89,1.58l-1.52-2.74c1.04-.84,2.28-1.47,3.72-1.92,1.44-.44,2.98-.67,4.6-.67,2.79,0,4.92,.68,6.4,2.05Zm-3.63,14.76c1.01-.62,1.75-1.5,2.2-2.64v-2.81h-5.62c-3.09,0-4.64,1.04-4.64,3.12,0,1.01,.39,1.81,1.18,2.39,.78,.58,1.87,.87,3.27,.87s2.6-.31,3.61-.93Z"/>
                  <path class="cls-25" d="M640.3,1766.9c1.48,1.37,2.22,3.41,2.22,6.12v12.16h-3.46v-2.66c-.61,.94-1.48,1.65-2.6,2.15-1.13,.49-2.46,.74-4.01,.74-2.25,0-4.06-.54-5.41-1.63-1.36-1.09-2.03-2.52-2.03-4.29s.65-3.2,1.94-4.28c1.29-1.08,3.34-1.62,6.16-1.62h5.78v-.72c0-1.57-.46-2.77-1.37-3.61-.91-.84-2.26-1.25-4.03-1.25-1.19,0-2.36,.2-3.5,.59s-2.1,.92-2.89,1.58l-1.52-2.74c1.04-.84,2.28-1.47,3.72-1.92,1.44-.44,2.98-.67,4.6-.67,2.79,0,4.92,.68,6.4,2.05Zm-3.63,14.76c1.01-.62,1.75-1.5,2.2-2.64v-2.81h-5.62c-3.09,0-4.64,1.04-4.64,3.12,0,1.01,.39,1.81,1.18,2.39,.78,.58,1.87,.87,3.27,.87s2.6-.31,3.61-.93Z"/>
                  <path class="cls-25" d="M649.29,1756.99h3.65v28.2h-3.65v-28.2Z"/>
                  <path class="cls-25" d="M659.95,1760.48c-.47-.46-.7-1.01-.7-1.67s.23-1.22,.7-1.69c.47-.47,1.06-.7,1.77-.7s1.3,.22,1.77,.66c.47,.44,.7,1,.7,1.65s-.23,1.26-.7,1.73c-.47,.47-1.06,.7-1.77,.7s-1.3-.23-1.77-.68Zm-.06,4.56h3.65v20.14h-3.65v-20.14Z"/>
                  <path class="cls-25" d="M689.49,1765.04v27.51h-3.65v-10.41c-.84,1.06-1.86,1.88-3.06,2.43-1.2,.56-2.53,.84-3.97,.84-1.95,0-3.7-.43-5.24-1.29-1.55-.86-2.75-2.07-3.63-3.63-.87-1.56-1.31-3.35-1.31-5.38s.44-3.81,1.31-5.36c.87-1.54,2.08-2.75,3.63-3.61,1.54-.86,3.29-1.29,5.24-1.29,1.49,0,2.86,.29,4.1,.86s2.27,1.41,3.08,2.53v-3.19h3.5Zm-6.92,16.28c1.04-.59,1.85-1.43,2.43-2.51,.58-1.08,.87-2.31,.87-3.7s-.3-2.62-.89-3.69c-.6-1.06-1.41-1.89-2.43-2.49-1.03-.6-2.17-.89-3.44-.89s-2.45,.29-3.48,.87c-1.03,.58-1.84,1.41-2.43,2.49-.6,1.08-.89,2.31-.89,3.71s.3,2.63,.89,3.7c.59,1.08,1.41,1.91,2.43,2.51,1.03,.6,2.18,.89,3.48,.89s2.42-.3,3.46-.89Z"/>
                  <path class="cls-25" d="M715.18,1765.04v20.14h-3.46v-3.04c-.74,1.04-1.7,1.84-2.91,2.41-1.2,.57-2.51,.86-3.93,.86-2.69,0-4.8-.74-6.35-2.22-1.55-1.48-2.32-3.67-2.32-6.55v-11.59h3.65v11.17c0,1.95,.47,3.43,1.41,4.43,.94,1,2.28,1.5,4.03,1.5,1.93,0,3.45-.58,4.56-1.75,1.11-1.17,1.67-2.81,1.67-4.94v-10.41h3.65Z"/>
                  <path class="cls-25" d="M735.87,1766.9c1.48,1.37,2.22,3.41,2.22,6.12v12.16h-3.46v-2.66c-.61,.94-1.48,1.65-2.6,2.15-1.13,.49-2.46,.74-4.01,.74-2.25,0-4.06-.54-5.42-1.63-1.36-1.09-2.03-2.52-2.03-4.29s.65-3.2,1.94-4.28c1.29-1.08,3.34-1.62,6.16-1.62h5.78v-.72c0-1.57-.46-2.77-1.37-3.61-.91-.84-2.26-1.25-4.03-1.25-1.19,0-2.36,.2-3.5,.59-1.14,.39-2.1,.92-2.89,1.58l-1.52-2.74c1.04-.84,2.28-1.47,3.72-1.92,1.44-.44,2.98-.67,4.6-.67,2.79,0,4.92,.68,6.4,2.05Zm-3.63,14.76c1.01-.62,1.75-1.5,2.2-2.64v-2.81h-5.62c-3.09,0-4.64,1.04-4.64,3.12,0,1.01,.39,1.81,1.18,2.39,.78,.58,1.87,.87,3.27,.87s2.6-.31,3.61-.93Z"/>
                  <path class="cls-25" d="M743.91,1784.67c-.51-.49-.76-1.12-.76-1.88s.25-1.35,.76-1.84c.51-.49,1.11-.74,1.82-.74s1.3,.24,1.79,.72c.48,.48,.72,1.1,.72,1.86s-.25,1.39-.74,1.88c-.49,.49-1.08,.74-1.77,.74s-1.32-.25-1.82-.74Z"/>
                </g>
              </g>
            </g>
          </g>
          <path d="M767.7,1077.26c4.98-7.75,11.29-14.49,17.77-21,7.19-7.24,14.46-14.4,21.7-21.6,14.7-14.62,29.4-29.25,44.1-43.87,8.27-8.22,16.53-16.45,24.8-24.67,2.28-2.27-1.25-5.81-3.54-3.54-14.76,14.68-29.52,29.37-44.28,44.05-14.75,14.68-29.52,29.33-44.26,44.03-7.49,7.47-14.87,15.14-20.61,24.08-1.74,2.72,2.58,5.23,4.32,2.52h0Z"/>
          <text class="cls-8" transform="translate(448.92 881.3)"><tspan x="0" y="0">#1e824c</tspan></text>
          <g>
            <path class="cls-26" d="M870.38,1194.3c79.85-51.21,85.07-299.52-69.36-357.64-154.43-58.12-125.82-204.78-255.74-314.4-118.43-99.93-314.34-15.23-379.6,244.66-46.53,185.31,7.76,417.77,44.81,427.39H870.38Z"/>
            <g>
              <g>
                <g>
                  <g>
                    <g>
                      <path class="cls-14" d="M720.42,1091.28s98.28-55.23,114.24-82.39c15.96-27.16-9.82-27.14-9.82-27.14,0,0,42.8-46.76,35.33-64.96-7.46-18.2-30.25,.93-30.25,.93,0,0,25.66-67.36,11.53-73.09-26.33-10.67-56.71,71.23-56.71,71.23,0,0,4.47-40.75-13.11-38.73-26.52,3.04-21.42,71.62-21.42,71.62,0,0-6.69-12.9-22.22-3.42-27.88,17.02-7.56,145.94-7.56,145.94Z"/>
                      <path class="cls-14" d="M723.96,946.58c15.54-9.48,16.68-1.43,16.68-1.43,0,0-7.93-62.95,30.99-68.03,17.55-2.29,14.76,27.82,14.76,27.82,0,0,28.73-70.99,55.06-60.32l-121.67,246.35c-1.93-16.6-21.86-128.5,4.18-144.4Z"/>
                    </g>
                    <path class="cls-21" d="M726.72,1090.9s121.82-.13,146.97-21.24c25.14-21.11-5.7-22.76-5.7-22.76,0,0,58.22-30.91,57.37-51.51-.85-20.61-20.59-16.46-20.59-16.46,0,0,40.24-36.05,31.98-53.52-12.7-26.85-70.25,24.07-70.25,24.07,0,0,4.4-20.42-13.45-24.69-26.92-6.43-54.23,70.1-54.23,70.1,0,0,12.87-34.48-5.62-30.65-33.18,6.87-66.49,126.65-66.49,126.65Z"/>
                    <g>
                      <path class="cls-21" d="M711.76,1108s-90.1-103.65-97.38-141.06c-7.28-37.4,19.35-34.43,19.35-34.43,0,0-27.23-63.15-11.4-80.91,15.84-17.76,34.13,13.23,34.13,13.23,0,0-2.18-87.17,16.25-88.02,34.32-1.58,41.74,93.33,41.74,93.33,0,0,5.59-37.53,24.84-28.16,29.03,14.13-4.37,90.33-4.37,90.33,0,0,15.69-28.01,29.6-10.94,24.96,30.63-52.76,186.63-52.76,186.63Z"/>
                      <path class="cls-21" d="M768.84,917.76c-16.99-14-26.25-3.79-26.25-3.79,0,0,25.74-57.86-3.29-71.99-19.25-9.37-24.84,28.16-24.84,28.16,0,0-7.41-94.91-41.74-93.33l39.7,329.99c15.29,2.96,76.67-172.37,56.43-189.05Z"/>
                    </g>
                    <path class="cls-9" d="M702.4,1127.65s-101.29-75-114.16-87.08c-12.87-12.07,12.01-13.12,12.01-13.12,0,0-32.36-22.2-31.48-33.42,.88-11.22,15.98-4.71,15.98-4.71,0,0-24.64-32.35-18.2-37.91,12-10.36,40.65,23.42,40.65,23.42,0,0-8.24-15.79,1.29-17.72,14.38-2.91,30.42,45.87,30.42,45.87,0,0,8.45-35.62,18.16-33.12,17.42,4.48,45.32,157.78,45.32,157.78Z"/>
                    <path class="cls-15" d="M665.51,1193.73h143.9c18.33-18.63,29.5-44.29,29.09-72.44-.21-14.22-2.84-26.61-8.32-38.78l-185.54,2.32c-5.13,12.36-7.88,25.94-7.67,40.16,.39,26.82,11.21,50.99,28.54,68.74Z"/>
                  </g>
                  <g>
                    <g>
                      <path class="cls-14" d="M314.93,1071.6s89.44-68.61,101.39-97.76c11.94-29.15-13.58-25.48-13.58-25.48,0,0,22-31.52,12.03-48.47-9.97-16.96-16.08-15.63-16.08-15.63,0,0,15.85-70.32,1.04-73.98-27.57-6.82-46.03,78.56-46.03,78.56,0,0-1.36-40.97-18.47-36.48-25.82,6.77-11.04,73.94-11.04,73.94,0,0-8.45-11.82-22.48-.23-25.18,20.8,13.22,145.53,13.22,145.53Z"/>
                      <path class="cls-21" d="M297.9,927.87c14.03-11.59,16.31-3.78,16.31-3.78,0,0-16.79-61.19,21.03-71.74,17.05-4.76,18.56,25.45,18.56,25.45,0,0,18.37-74.35,45.94-67.53l-85.48,261.12c-4.26-16.16-39.87-124.1-16.35-143.53Z"/>
                    </g>
                    <path class="cls-24" d="M317.28,1088.58s121.82-.13,146.97-21.24c25.14-21.11-5.7-22.76-5.7-22.76,0,0,58.22-30.91,57.37-51.51-.85-20.61-20.59-16.46-20.59-16.46,0,0,40.24-36.05,31.98-53.52-12.7-26.85-70.25,24.07-70.25,24.07,0,0,4.4-20.42-13.45-24.69-26.92-6.43-54.23,70.1-54.23,70.1,0,0,12.87-34.48-5.62-30.65-33.18,6.87-66.49,126.65-66.49,126.65Z"/>
                    <g>
                      <path class="cls-21" d="M304.16,1105.68s-98.95-113.84-106.95-154.92c-8-41.08,21.25-37.81,21.25-37.81,0,0-29.91-69.35-12.52-88.86,17.39-19.51,37.49,14.53,37.49,14.53,0,0-2.39-95.74,17.84-96.67,37.7-1.73,45.84,102.5,45.84,102.5,0,0,6.14-41.22,27.28-30.93,31.88,15.52-4.8,99.2-4.8,99.2,0,0,17.24-30.76,32.51-12.01,27.41,33.64-57.94,204.96-57.94,204.96Z"/>
                      <path class="cls-14" d="M366.85,896.75c-18.66-15.38-28.83-4.16-28.83-4.16,0,0,28.26-63.54-3.62-79.06-21.14-10.29-27.28,30.93-27.28,30.93,0,0-8.14-104.23-45.84-102.5l43.61,362.42c16.79,3.25,84.2-189.31,61.97-207.63Z"/>
                    </g>
                    <path class="cls-21" d="M292.96,1125.34s-101.91-100.85-114.88-117.06c-12.97-16.21,11.91-17.4,11.91-17.4,0,0-32.54-29.87-31.76-44.83,.79-14.96,15.95-6.15,15.95-6.15,0,0-24.9-43.34-18.5-50.71,11.92-13.73,40.85,31.57,40.85,31.57,0,0-8.37-21.12,1.15-23.62,14.36-3.77,30.8,61.43,30.8,61.43,0,0,8.17-47.45,17.9-44.04,17.46,6.12,46.58,210.82,46.58,210.82Z"/>
                    <path class="cls-4" d="M256.07,1191.41h143.9c18.33-18.63,29.49-44.29,29.09-72.44-.21-14.21-2.83-26.61-8.32-38.78l-185.54,2.32c-5.13,12.36-7.88,25.94-7.67,40.16,.39,26.82,11.21,50.99,28.54,68.74Z"/>
                  </g>
                  <g>
                    <path class="cls-17" d="M483.46,884.39h134.24c22.02,0,39.91,17.88,39.91,39.91v123.27h-214.05v-123.27c0-22.03,17.88-39.91,39.91-39.91Z"/>
                    <path class="cls-25" d="M291.55,884.39h277.5c22.59,0,40.93,18.34,40.93,40.93v130.73H250.62v-130.73c0-22.59,18.34-40.93,40.93-40.93Z"/>
                    <polygon class="cls-17" points="697.51 1193.74 607.99 1194.64 611.35 955.01 695.74 955.51 697.51 1193.74"/>
                    <path class="cls-17" d="M754.22,994.21c0-21.06-23.99-38.21-53.96-38.9v-.03h0c-32.75-.3-59.51,19.89-59.51,44.9v108.92h56.62l1.21-78.58c30.65-.15,55.64-14.91,55.64-36.31Z"/>
                    <polygon class="cls-17" points="266.04 959.77 181.65 960.29 180.43 1130.8 304.78 1130.65 266.04 959.77"/>
                    <path class="cls-17" d="M208.47,996.59c0-19.78,23.99-35.89,53.96-36.53v-.03h0c32.75-.29,59.51,18.68,59.51,42.17v102.29h-56.62l-1.43-71.36c-30.65-.14-55.42-16.45-55.42-36.55Z"/>
                    <path class="cls-22" d="M131.1,996.59c0-19.78,22.31-35.89,50.19-36.53v-.03s0,0,0,0c30.46-.29,55.35,18.68,55.35,42.17v102.29l-57.54,.14v-44.93l-.3-26.74c-28.5-.14-47.71-16.28-47.71-36.38Z"/>
                    <polygon class="cls-17" points="711.94 1085.44 178.92 1085.43 178.88 1193.73 711.94 1193.73 711.94 1085.44"/>
                    <path class="cls-22" d="M680.16,1130.9H211.28c-17.91,0-32.44-13.09-32.44-29.23l.29-45.89,533.46,.07v45.82c0,16.15-14.52,29.23-32.44,29.23Z"/>
                  </g>
                  <path class="cls-22" d="M768.58,993.25c0-19.83-23.99-35.98-53.96-36.63v-.03h0c-32.75-.29-59.51,18.73-59.51,42.28v102.56h56.62l1.14-66.81c30.64-.15,55.71-21.22,55.71-41.37Z"/>
                </g>
                <g>
                  <path class="cls-12" d="M571.15,1004.05s-45.16-67.18-61.85-66.13c-16.69,1.05-73.51,99.71-73.51,99.71,0,0-24.95,10.81-27.57,13.43-2.62,2.62,49.98,1.35,49.98,1.35,0,0-3.5-15.66,.56-19.73,35.24-35.24,38.96-43.32,44.41-48.77,5.5-5.5,55.25,46.3,55.25,46.3l12.72-26.15Z"/>
                  <path class="cls-23" d="M456.71,1035.11c3.04-1.13,5.34,.91,5.9,4.2,1.19,7.04,3.86,17.32,2.97,17.92-1.36,.91-59.67,.75-63.35-2.39-3.68-3.14,29.81-21.33,36.16-19.96,5.65,1.22,4.63,5.3,18.33,.24Z"/>
                  <path class="cls-18" d="M465.34,1050.06c.38,3.49,.69,6.87,.24,7.17-1.36,.91-59.92,1.11-63.51-1.9-.56-.47-.49-1.37,.51-2.45,11.68,1.71,49.15-1.53,62.77-2.82Z"/>
                  <path class="cls-13" d="M402.57,1052.87c14.34,2.54,49.12-1.14,62.77-2.82-39.86,2.02-54.2,3.66-62.77,2.82Z"/>
                  <path class="cls-5" d="M562.32,998.4s-46.3-57.96-65.03-60.43c-18.73-2.47-67.5,92.59-74.57,99.66-7.07,7.07-30.39,10.6-30.39,14.14s54.78,1.41,54.78,1.41c0,0-.35-10.6,1.06-18.38,1.41-7.77,38.52-40.2,46.65-51.86,8.13-11.66,50.16,52.01,50.16,52.01l17.34-36.55Z"/>
                  <path class="cls-1" d="M555.25,983.91s-21.56,19.79-25.45,40.29c0,0,27.59,31.13,49.09,33.63,18.39,2.13,49.51-6.77,56.93-23.02,7.42-16.26-45.59-28.98-45.59-28.98l-34.99-21.91Z"/>
                  <path class="cls-19" d="M612.72,1037.94c6.46,2.38,11.77,3.97,16.68,5.18,2.96-2.5,5.12-5.48,6.42-8.33,7.42-16.26-45.59-28.98-45.59-28.98,0,0-.97,23.49,22.49,32.13Z"/>
                  <path class="cls-1" d="M626.28,909.56s-21.9,37.6-18.72,54.21c3.18,16.61-17.32,42.05-17.32,42.05,0,0,10.25,28.98,45.59,28.98s32.82-111.37,22.93-121.26c-9.89-9.9-11.79-8.65-32.48-3.98Z"/>
                  <path class="cls-19" d="M658.75,913.54c-4.61-4.61-7.49-6.8-11.34-7.35-1.78,.34-3.29,58.88-15.86,81.33-15.01,26.82-41.32,18.3-41.32,18.3,0,0,4.87,13.77,19.47,22.32,4.44,1.22,8.37,1.5,11.4,.44,17.46-6.1,36.67-61.58,39.46-80.12,1.18-7.81,3.21-29.91-1.81-34.93Z"/>
                  <path class="cls-16" d="M552.09,983.13h0c-1.59,1.04-3.73,.6-4.77-.99l-29.44-44.93c-1.04-1.59-.6-3.73,.99-4.77h0c1.59-1.04,3.73-.6,4.77,.99l29.44,44.93c1.04,1.59,.6,3.73-.99,4.77Z"/>
                  <path class="cls-5" d="M612.72,893.37s4.4,3.01,6.25,5.71c3.85,5.62,6.5,9.68,4.68,16.23-1.41,5.08-3.06,12.53-3.06,19.65,0,12.46,25.13-29.03,25.13-29.03l-17.51-23.94-15.48,11.38Z"/>
                  <path class="cls-11" d="M628.87,882.76l-.66-.77-15.48,11.38s4.4,3.01,6.25,5.71c.66,.97,1.29,1.88,1.86,2.78,3.31-4.76,6.22-10.29,7.64-14.32,.46-1.3,.57-2.93,.39-4.78Z"/>
                  <path class="cls-5" d="M603.7,852.52s-5.51,3.03-6.66,17.45c-1.16,14.42,1.74,29.27,7.68,30.57,5.94,1.3,20.57-7.35,25.36-14.42,4.78-7.07-2.9-30.14-10.72-33.6-7.82-3.46-15.65,0-15.65,0Z"/>
                  <path class="cls-16" d="M644.71,841.28c1.81,1.8,5.22,10.09,5.22,19.61s-12.75,27.11-16.08,28.55c-3.33,1.44-16.91-7.45-20.43-28.55-.83-4.98-10.73-7.51-10.73-7.51,0,0-1.15-9.36,7.69-12.67s11.48-3.77,18.58-5.79c7.1-2.02,12.35,2.98,15.76,6.37Z"/>
                  <path class="cls-16" d="M636.54,836.85c-2.32-9.31,2.74-27.79,17.94-27,15.2,.79,24.06,11.84,22.8,22.36-1.27,10.52-6.04,26.03-19.48,24.18s-18.6-2.06-18.6-2.06c-2.02-13.72-2.66-17.49-2.66-17.49Z"/>
                  <path class="cls-16" d="M645.42,842.19c1.43,3.53,2.59,10.15,1.26,17.3-1.93,10.37-14.26,25.77-18.21,28.3,2.37,1.56,4.35,2.09,5.38,1.65,3.33-1.44,16.08-19.03,16.08-28.55,0-8.38-2.64-15.81-4.51-18.69Z"/>
                  <path class="cls-5" d="M651.6,906.38c-5.48-1.53-11.09,2.11-12.68,7.57-2.16,7.38-5.82,20.5-9.95,37.8-6.58,27.57-4.99,39.76-21.42,39.76s-36.18-10.47-39.76-14.05c-3.58-3.58-13.25-13.78-15.9-13.78s-10.71-10.94-14.03-8c-2.38,2.11,10.61,12.66,10.61,14.42s-.6,8.82,3.61,13.04c4.22,4.22,51.55,39,69.01,33.5,17.46-5.51,36.67-55.57,39.46-72.3,2.72-16.28,2.78-34.67-8.96-37.95Z"/>
                  <path class="cls-10" d="M440.68,1032.8c3.37-1.25,7.12,1.01,7.74,4.65,.62,3.67,1.34,8.13,1.82,11.9,.54,4.24-1.22,6.23-1.74,6.58-1.5,1.01-64.08,2.2-68.16-1.29-4.08-3.48,33.01-23.62,40.05-22.11,6.26,1.35,5.12,5.87,20.29,.27Z"/>
                  <path class="cls-1" d="M450.24,1049.35c.42,3.87,.76,7.61,.26,7.94-1.5,1.01-66.36,1.23-70.34-2.11-.62-.52-.55-1.51,.56-2.71,12.94,1.89,54.43-1.69,69.52-3.12Z"/>
                  <path class="cls-13" d="M380.72,1052.47c15.89,2.81,54.4-1.26,69.52-3.12-44.14,2.23-60.02,4.05-69.52,3.12Z"/>
                </g>
                <g>
                  <path class="cls-17" d="M398.09,878.88s.1-.03,.15-.03c1.09-.09,13.53-1.12,14.56,.71,.77,1.36,1.06,3.3,1.16,4.32,.04,.37-.25,.68-.62,.68h-21.08c-.17,0-.34-.07-.45-.2-.54-.58-2.08-2.24-1.92-2.45,.18-.24,7.4-2.75,8.21-3.04Z"/>
                  <path class="cls-17" d="M295.77,903.22c-.29-.22-.7-.14-.9,.16-.99,1.55-3.59,5.81-2.91,6.69,.83,1.09,4.15,.13,4.53-.06,.38-.19,2.17-4.28,2.17-4.47,0-.14-1.93-1.6-2.89-2.32Z"/>
                  <path class="cls-1" d="M296.48,909.94s0,.09,0,.14c-.15,1.05-1.86,13.68,5.12,12.7,7.1-1,2.9-13.64,.44-17.71-.11-.18-.13-.41-.03-.6,.61-1.22,2.86-5.73,3.58-7.81,.13-.39,.59-.54,.93-.32,1.21,.8,3.84,2.28,7.08,2.56,4.41,.38,10.82-1.4,14.91-13.29,.09-.27,.34-.44,.63-.42,3.13,.19,20.9,1.26,25.3,1.23,.38,0,.67,.34,.62,.72-.11,.87-.05,2.39,1.19,3.97,1.92,2.43,7.02,11.37,7.79,13.29,.77,1.91-2.68,9.83-.77,11.11,1.92,1.28,8.3-1.15,8.68-7.73,.38-6.57-6.64-17.68-6.51-19.34,.11-1.49,3.63-3.45,4.37-3.85,.09-.05,.19-.07,.29-.07l24.13-.29c.14,0,.26-.04,.37-.13,.9-.69,5.08-4.13,3.02-7.31-2.3-3.55-4.09-9.42-8.68-9.55h-.23c-.34-.02-.6-.3-.6-.64l.02-6.02c0-.51-.56-.81-.98-.52-1.24,.86-3.33,2.43-4.37,3.85-.27,.37-.83,.35-1.05-.05-.53-.96-1.45-2.5-2.63-4.1-.19-.26-.56-.33-.84-.15-1.12,.7-3.89,2.87-6.12,8.21-.11,.26-.38,.42-.67,.38-.91-.13-2.98-.49-5.16-1.35-2.91-1.15-5.81,1.28-9.47,.51-3.66-.77-20.77-.88-25.62-.83-4.85,.06-18.94-.92-26.17,3.89-6.31,4.19-13.85,14.15-11.93,24.77,0,.03,.01,.06,.02,.09,.21,.66,2.96,9.37,3.34,14.66Z"/>
                  <path class="cls-17" d="M309.13,878.48c-1.36,1.2-2.69,2.43-3.95,3.73-1.26,1.29-2.49,2.62-3.54,4.08-.24,.38-.51,.73-.72,1.13-.1,.2-.23,.38-.32,.58l-.25,.56s-.02,.04-.03,.07c-.28,.8-.38,1.69-.44,2.56-.04,.44-.03,.89-.05,1.34,.01,.45,0,.9,.03,1.35,.02,.45,.04,.9,.09,1.34,.03,.45,.08,.89,.13,1.34,.19,1.79,.51,3.56,.99,5.29,.23,.87,.53,1.71,.87,2.53l.29,.6c.11,.2,.21,.4,.31,.61,.2,.41,.39,.82,.58,1.24,.75,1.66,1.4,3.37,1.89,5.12,.22,.88,.42,1.77,.52,2.68,.1,.9,.12,1.82-.02,2.72,.08-.9,0-1.81-.13-2.7-.15-.89-.38-1.76-.64-2.62-.54-1.72-1.23-3.39-2.02-5.01-.2-.4-.4-.81-.61-1.21l-.31-.6-.31-.62c-.37-.85-.68-1.71-.92-2.59-.5-1.76-.84-3.56-1.05-5.37-.05-.45-.1-.91-.12-1.36-.04-.45-.06-.91-.07-1.37-.03-.46-.01-.91-.02-1.37,.02-.46,.02-.91,.06-1.37,.07-.91,.17-1.84,.51-2.74,.35-.88,.87-1.65,1.41-2.39,2.25-2.89,4.99-5.31,7.84-7.55Z"/>
                  <path class="cls-17" d="M330.44,880.7c-1.05,2.75-2.12,5.48-3.21,8.21-.53,1.39-1.24,2.71-2.07,3.94-.83,1.24-1.8,2.38-2.93,3.37-1.12,.99-2.43,1.79-3.84,2.31-1.42,.52-2.95,.71-4.44,.6-1.5-.11-2.95-.52-4.31-1.1-1.36-.6-2.64-1.34-3.83-2.21,.64,.37,1.27,.74,1.93,1.06,.66,.32,1.33,.62,2.01,.87,1.37,.5,2.79,.84,4.23,.91,1.44,.07,2.88-.14,4.22-.65,1.35-.5,2.57-1.28,3.66-2.22,1.09-.94,2.04-2.05,2.87-3.24,.82-1.19,1.56-2.46,2.12-3.8,1.17-2.7,2.37-5.39,3.59-8.06Z"/>
                  <path class="cls-17" d="M358.22,878.21c-.39,1.4-.83,2.79-1.29,4.16-.46,1.38-.95,2.74-1.44,4.11v.03s-.03,.03-.03,.03c-.02,.02-.06,.12-.08,.19-.03,.08-.05,.16-.06,.24-.03,.16-.05,.34-.05,.51,0,.35,.04,.7,.11,1.06,.14,.71,.42,1.39,.74,2.06,.65,1.34,1.48,2.59,2.35,3.82-.53-.54-1.02-1.11-1.49-1.71-.46-.6-.89-1.23-1.26-1.9-.37-.67-.68-1.38-.87-2.15-.09-.38-.15-.78-.15-1.18,0-.2,.02-.41,.06-.61,.02-.1,.05-.21,.08-.31,.04-.11,.07-.19,.15-.33l-.03,.06c.51-1.36,1.02-2.72,1.56-4.06,.54-1.35,1.1-2.69,1.71-4.01Z"/>
                  <path class="cls-10" d="M397.17,876.86c-.86,.15-1.18,1.22-.53,1.8,.57,.51,1.16,.89,1.45,.66h0c.13-.69,.08-1.41-.26-2.12-.12-.25-.4-.4-.67-.35h0Z"/>
                  <path class="cls-17" d="M385.27,875.01c.4-.1,.79-.17,1.16-.2,.38-.03,.74-.01,1.1,.06,.35,.08,.7,.18,1.03,.37l.13,.06s.08,.05,.12,.08l.25,.15c.17,.1,.32,.23,.5,.34-.09-.19-.19-.37-.31-.54-.14-.15-.26-.33-.44-.46-.32-.29-.74-.47-1.17-.56-.43-.09-.88-.06-1.29,.06-.41,.13-.79,.33-1.08,.64Z"/>
                  <path class="cls-17" d="M388.1,866.64l.02-6.06c0-.51-.56-.81-.98-.52-1.42,.99-3.97,2.91-4.75,4.46-.1,.19-.09,.41,.01,.6l1.22,2.14c.12,.21,.36,.34,.6,.31l3.31-.32c.32-.03,.56-.3,.56-.62Z"/>
                  <path class="cls-10" d="M379.73,862.11l2.89,4.84c.21,.35,.03,.8-.36,.92-.73,.22-1.88,.5-2.91,.49-.26,0-.49-.16-.59-.4-.28-.73-.76-2.55-.18-5.65,.1-.56,.86-.69,1.15-.2Z"/>
                </g>
                <g>
                  <path class="cls-20" d="M424.83,681.46v82.64c0,5.82,4.72,10.54,10.54,10.54h113.93l-2.98,50.79,25.23-50.83,16.96,.04h0c5.82,0,10.54-4.72,10.54-10.54v-82.64c0-5.82-4.72-10.54-10.54-10.54h-153.14c-5.82,0-10.54,4.72-10.54,10.54Z"/>
                  <path class="cls-1" d="M452.8,702.23h115.06c2.94,0,5.32-2.65,5.32-5.93h0c0-3.28-2.38-5.93-5.32-5.93h-115.06c-2.94,0-5.32,2.65-5.32,5.93h0c0,3.27,2.38,5.93,5.32,5.93Z"/>
                  <path class="cls-1" d="M452.8,720.02h115.06c2.94,0,5.32-2.66,5.32-5.93h0c0-3.27-2.38-5.93-5.32-5.93h-115.06c-2.94,0-5.32,2.66-5.32,5.93h0c0,3.27,2.38,5.93,5.32,5.93Z"/>
                  <path class="cls-1" d="M452.8,739.37h74.74c2.94,0,5.32-2.66,5.32-5.93h0c0-3.27-2.38-5.93-5.32-5.93h-74.74c-2.94,0-5.32,2.65-5.32,5.93h0c0,3.27,2.38,5.93,5.32,5.93Z"/>
                </g>
              </g>
              <path class="cls-16" d="M896.51,1195.23c0-1.25-.75-2.27-1.67-2.27H128.15c-1.12,0-2.02,1.02-2.02,2.27s.91,2.27,2.02,2.27H894.84c.92,0,1.67-1.02,1.67-2.27h0Z"/>
            </g>
          </g>
          <line class="cls-3" x1="754.2" y1="1073.5" x2="885.86" y2="961.73"/>
          <line class="cls-3" x1="710.67" y1="955.01" x2="686.36" y2="833.19"/>
          <line class="cls-3" x1="836.49" y1="970.22" x2="824.23" y2="1012.75"/>
          <line class="cls-3" x1="775.55" y1="1058.27" x2="819.6" y2="1053.82"/>
          <line class="cls-3" x1="838.92" y1="1001.11" x2="883.16" y2="1002.73"/>
        </g>
      </g>
    </g>
  </g>
</svg>